<?xml version="1.0" encoding="iso-8859-1"?>
<!-- Generator: Adobe Illustrator 16.0.0, SVG Export Plug-In . SVG Version: 6.00 Build 0)  -->
<!DOCTYPE svg PUBLIC "-//W3C//DTD SVG 1.1//EN" "http://www.w3.org/Graphics/SVG/1.1/DTD/svg11.dtd">
<svg version="1.1" id="Capa_1" xmlns="http://www.w3.org/2000/svg" xmlns:xlink="http://www.w3.org/1999/xlink" x="0px" y="0px"
	 width="66.824px" height="66.824px" viewBox="0 0 66.824 66.824" style="enable-background:new 0 0 66.824 66.824;"
	 xml:space="preserve">
<g>
	<path d="M65.658,12.408H33.755l-0.002-0.002L5.723,3.887C5.366,3.778,4.985,3.843,4.688,4.065c-0.296,0.219-0.472,0.57-0.472,0.936
		v7.407H1.168C0.523,12.408,0,12.934,0,13.576v41.286c0,0.644,0.523,1.168,1.168,1.168h24.216v4.624h-4.429v1.168v1.167h24.912
		v-1.167v-1.168H41.44V56.03h24.216c0.641,0,1.168-0.524,1.168-1.168V13.576C66.826,12.93,66.302,12.408,65.658,12.408z
		 M6.55,12.408V6.578l19.179,5.831l3.843,1.168l2.672,0.813v0.355v38.489L6.55,45.423V14.744v-1.168V12.408z M64.49,53.696H34.58
		V14.744h4.59v4.333l2.272-1.438l2.276,1.438v-4.333h20.778v38.95H64.49V53.696z M28.285,21.885l-9.105-2.77v-1.538l9.105,2.774
		V21.885z M28.285,27.749l-9.105-2.771v-1.542l9.105,2.772V27.749z M28.285,33.66l-18.208-5.539v-1.534l18.208,5.536V33.66z
		 M28.285,39.518l-18.208-5.535v-1.54l18.208,5.535V39.518z M28.285,45.435l-18.208-5.538v-1.538l18.208,5.534V45.435z
		 M11.634,23.135l0.475-1.546l2.743,0.832l0.488,1.838l0.796,0.243l0.801,0.243l-2.555-9.089l-0.876-0.264l-0.875-0.264
		l-2.556,7.533l0.784,0.241L11.634,23.135z M13.488,17.242l0.957,3.627l-1.915-0.582L13.488,17.242z M60.715,39.729H39.771V38.19
		h20.944V39.729z M60.715,45.643H39.771v-1.538h20.944V45.643z M39.946,26.164h0.821h2.468c0.89,0,1.569,0.21,2.034,0.631
		c0.466,0.421,0.703,1.025,0.703,1.83c0,0.847-0.237,1.487-0.703,1.924c-0.465,0.437-1.145,0.662-2.034,0.662
		c-0.634-0.004-1.182,0-1.647,0.009v2.791h-0.816h-0.825V26.164z M41.588,29.859h1.364c0.459,0,0.808-0.1,1.033-0.306
		c0.23-0.202,0.345-0.507,0.345-0.916c0-0.379-0.118-0.655-0.345-0.842c-0.226-0.186-0.574-0.277-1.033-0.277h-1.364V29.859z
		 M47.236,26.164h0.821h2.541c1.076,0,1.897,0.318,2.459,0.954c0.557,0.633,0.839,1.56,0.839,2.779c0,1.338-0.292,2.363-0.875,3.065
		c-0.58,0.703-1.433,1.048-2.56,1.048h-2.404h-0.821V26.164z M48.879,32.665h1.382c0.666,0,1.168-0.229,1.501-0.675
		c0.333-0.451,0.497-1.124,0.497-2.03c0-0.813-0.154-1.422-0.46-1.824c-0.311-0.417-0.776-0.617-1.401-0.617h-1.519V32.665
		L48.879,32.665z M55.133,34.013v-7.849h5.585v0.698v0.701h-3.942v1.779h3.436v0.673v0.68h-3.436v3.321h-0.823L55.133,34.013
		L55.133,34.013z"/>
</g>
<g>
</g>
<g>
</g>
<g>
</g>
<g>
</g>
<g>
</g>
<g>
</g>
<g>
</g>
<g>
</g>
<g>
</g>
<g>
</g>
<g>
</g>
<g>
</g>
<g>
</g>
<g>
</g>
<g>
</g>
</svg>
