<?xml version="1.0" encoding="utf-8"?>
<!-- Generator: Adobe Illustrator 17.0.0, SVG Export Plug-In . SVG Version: 6.00 Build 0)  -->
<!DOCTYPE svg PUBLIC "-//W3C//DTD SVG 1.1//EN" "http://www.w3.org/Graphics/SVG/1.1/DTD/svg11.dtd">
<svg version="1.1" id="Слой_1" xmlns="http://www.w3.org/2000/svg" xmlns:xlink="http://www.w3.org/1999/xlink" x="0px" y="0px"
	 width="2424px" height="2000px" viewBox="0 0 2424 2000" enable-background="new 0 0 2424 2000" xml:space="preserve">
<g>
	<rect x="-0.001" y="0" fill="#FFFFFF" width="2424" height="2000"/>
	<linearGradient id="SVGID_1_" gradientUnits="userSpaceOnUse" x1="1323.5699" y1="608.4061" x2="914.1694" y2="2981.4221">
		<stop  offset="0" style="stop-color:#FFF4E8"/>
		<stop  offset="0.9947" style="stop-color:#CCE9FF"/>
	</linearGradient>
	<path fill="url(#SVGID_1_)" d="M280.418,790.626c-89.719,224.39-135.687,511.701,159.603,723.122
		c295.289,211.421,1260.022,156.231,1609.729-37.934c349.706-194.165,211.172-640.472,32.144-815.349
		s-414.936-439.36-854.942-239.246C786.945,621.334,397.932,496.722,280.418,790.626z"/>
	<g>
		<defs>
			<filter id="Adobe_OpacityMaskFilter" filterUnits="userSpaceOnUse" x="610.453" y="1416.069" width="1144.812" height="231.942">
				<feFlood  style="flood-color:white;flood-opacity:1" result="back"/>
				<feBlend  in="SourceGraphic" in2="back" mode="normal"/>
			</filter>
		</defs>
		<mask maskUnits="userSpaceOnUse" x="610.453" y="1416.069" width="1144.812" height="231.942" id="SVGID_2_">
			<g filter="url(#Adobe_OpacityMaskFilter)">
				<defs>
					
						<filter id="Adobe_OpacityMaskFilter_1_" filterUnits="userSpaceOnUse" x="610.453" y="1416.069" width="1144.812" height="231.942">
						<feFlood  style="flood-color:white;flood-opacity:1" result="back"/>
						<feBlend  in="SourceGraphic" in2="back" mode="normal"/>
					</filter>
				</defs>
				<mask maskUnits="userSpaceOnUse" x="610.453" y="1416.069" width="1144.812" height="231.942" id="SVGID_2_">
					<g filter="url(#Adobe_OpacityMaskFilter_1_)">
					</g>
				</mask>
				<linearGradient id="SVGID_3_" gradientUnits="userSpaceOnUse" x1="1182.8589" y1="1463.2164" x2="1182.8589" y2="1945.8491">
					<stop  offset="0" style="stop-color:#000000"/>
					<stop  offset="0.6952" style="stop-color:#FFFFFF"/>
				</linearGradient>
				<polygon mask="url(#SVGID_2_)" fill="url(#SVGID_3_)" points="1435.243,1647.891 1755.265,1416.069 610.453,1416.069 
					935.149,1648.012 				"/>
			</g>
		</mask>
		<linearGradient id="SVGID_4_" gradientUnits="userSpaceOnUse" x1="1182.8589" y1="1463.2164" x2="1182.8589" y2="1945.8491">
			<stop  offset="0" style="stop-color:#E67A56"/>
			<stop  offset="0.6952" style="stop-color:#E67A56"/>
		</linearGradient>
		<polygon opacity="0.72" fill="url(#SVGID_4_)" points="1435.243,1647.891 1755.265,1416.069 610.453,1416.069 935.149,1648.012 		
			"/>
		<path fill="#404773" d="M1567.111,1313.706c-1.853,12.973-79.785,67.551-95.135,78.455c-12.317,8.752-23.025,12.768-41.649,19.769
			c-0.006,0-0.006,0-0.013,0c-42.31,11.126-307.799,90.348-307.799,90.348c-0.698-2.699-1.075-5.041-2.638-8.074
			c-9.909,3.954-20.108,6.512-26.589,8.538c-9.884,3.089-88.34,5.56-104.401,8.648c-16.062,3.089-48.186,8.031-61.158-4.324
			c-12.973-12.355,8.031-38.919,25.946-45.715c17.915-6.795,83.397-8.648,95.135-9.884c11.737-1.235,27.182-5.56,34.595-3.089
			c2.341,0.778,12.695-2.261,25.767-6.777c-0.321-4.812-0.401-7.845-0.401-7.845l69.708-20.096l-12.911-123.429
			c0,0,30.326-114.286,151.5-27.102c0,0,27.033,7.95,36.3,10.422c0.654,0.173,1.698,0.197,3.101,0.086
			c18.483-1.39,97.915-25.414,126.629-25.414c30.888,0,40.772-1.854,51.892,3.706
			C1546.108,1257.489,1568.965,1300.733,1567.111,1313.706z"/>
		<path fill="#404773" d="M1442.979,1507.065c-12.973,12.355-45.097,7.413-61.157,4.324c-16.063-3.089-94.519-5.56-104.402-8.648
			s-28.417-7.413-41.39-16.063c-1.044-0.697-3.429-1.735-6.932-3.045c0,0-0.006,0.006-0.012,0.012l-19.621,14.153l-272.785-86.833
			c-16.34-4.479-29.313-11.299-37.949-18.805c-14.208-12.354-93.282-65.482-95.135-78.455
			c-1.853-12.973,21.004-56.217,32.124-61.776c11.12-5.56,21.004-3.706,51.892-3.706c30.888,0,120.463,27.799,129.73,25.328
			c4.213-1.125,12.936-5.566,21.201-10.082c9.909-5.412,19.157-10.922,19.157-10.922c132.676-59.225,147.441,37.684,147.441,37.684
			l-7.852,119.642c0,0,11.058,5.485,25.44,12.318l65.761,18.582l-8.611,6.215c3.719,1.198,6.356,1.748,7.425,1.39
			c7.413-2.471,22.857,1.854,34.596,3.089c11.736,1.235,77.22,3.089,95.135,9.884
			C1434.948,1468.146,1455.952,1494.71,1442.979,1507.065z"/>
		<path fill="#404773" d="M1038.543,1263.47c9.149,0.643,70.969,36.447,85.641,45.01c-22.295-11.645-106.842-34.928-106.842-34.928
			C1021.555,1272.427,1030.277,1267.985,1038.543,1263.47z"/>
		<path fill="#404773" d="M1356.475,1273.644c0,0-106.502,25.842-125.993,36.658c0.884-0.643,56.124-42.617,85.129-48.214
			c0,0,28.49,8.992,37.757,11.464c0.654,0.173,1.698,0.197,3.101,0.086C1356.475,1273.644,1356.475,1273.644,1356.475,1273.644z"/>
		<path fill="#EEA886" d="M1442.979,1507.065c-12.973,12.355-45.097,7.413-61.157,4.324c-16.063-3.089-94.519-5.56-104.402-8.648
			c-2.841-0.89-6.394-1.878-10.329-3.04c0-0.006-0.006-0.006-0.006-0.006c-9.748-2.885-21.813-6.857-31.055-13.017
			c-1.044-0.697-3.429-1.735-6.932-3.045l49.365-35.627l1.415-1.019c3.719,1.198,6.356,1.748,7.425,1.39
			c7.413-2.471,22.857,1.854,34.596,3.089c11.736,1.235,77.22,3.089,95.135,9.884
			C1434.948,1468.146,1455.952,1494.71,1442.979,1507.065z"/>
		<path fill="#C5CDDB" d="M1442.979,1507.065c-12.973,12.355-45.097,7.413-61.157,4.324c-16.063-3.089-94.519-5.56-104.402-8.648
			c-2.841-0.89-6.394-1.878-10.329-3.04c0-0.006-0.006-0.006-0.006-0.006c-0.006-0.006-0.012-0.006-0.012-0.006
			s21.596-21.368,11.391-51.683l1.415-1.019c3.719,1.198,6.356,1.748,7.425,1.39c7.413-2.471,22.857,1.854,34.596,3.089
			c11.736,1.235,77.22,3.089,95.135,9.884C1434.948,1468.146,1455.952,1494.71,1442.979,1507.065z"/>
		<path fill="#E55353" d="M1065.624,1290.739c0.142,0.327,0.111,0.568-0.099,0.729
			C1064.296,1292.389,1064.494,1291.993,1065.624,1290.739z"/>
		<path fill="#E55353" d="M1422.659,1146.294c-1.031-2.088-57.31-90.607-72.55-130.965c-15.24-40.365-51.893-58.898-69.189-64.661
			c-6.172-2.058-17.168-5.641-28.763-9.391c-20.893-6.758-43.719-14.085-43.719-14.085h-72.074c0,0-24.97,8.365-51.484,17.656
			c-0.019,0.012-0.031,0.019-0.031,0.019c-24.432,8.568-50.168,17.927-58.861,22.276c-18.119,9.057-48.593,73.717-54.771,81.131
			c-6.178,7.412-53.684,95.469-60.541,129.315c-5.325,26.285,150.691,103.283,154.947,113.149
			c4.942-5.479,27.664-27.269,27.664-27.269s-7.277-4.577-17.526-11.317c41.791,1.915,143.914-1.687,158.566-0.951
			c2.947,0.148,6.147,0.056,9.44-0.204c-0.013,0.007-0.02,0.013-0.02,0.013c4.535,3.293,33.779,29.128,33.779,29.128
			s72.075-29.925,105.218-63.42C1429.819,1169.151,1427.842,1156.796,1422.659,1146.294z M1012.861,1204.864
			c-15.444-18.533-36.702-29.745-31.352-37.98c5.356-8.234,50.656-86.486,50.656-86.486s23.475,51.479,30.066,78.252
			c6.592,26.768,6.073,39.023,3.293,47.357c-2.49,7.469-4.491,12.547-6.733,34.786
			C1040.321,1228.179,1019.94,1213.358,1012.861,1204.864z M1331.521,1196.018c-6.061,6.883-30.023,22.11-51.57,34.645
			c-1.638-14.938-4.115-38.443-4.387-46.895c-0.408-12.763,4.941-49.421,11.533-63.419c6.592-14.005,11.119-52.307,11.119-52.307
			s54.567,74.132,63.216,81.959C1370.082,1157.821,1351.982,1172.774,1331.521,1196.018z"/>
		<g>
			<path fill="#EEA886" d="M1180.99,729.102c0,0,56.364,8.879,47.781,97.064c-8.582,88.186-58.328,80.958-61.653,80.869
				c-3.325-0.089-49.939,1.608-53.573-106.063C1113.545,800.973,1111.959,721.356,1180.99,729.102z"/>
		</g>
		<g>
			<path fill="#EEA886" d="M1229.644,801.257c0,0,6.172-6.593,8.436,0.081c2.264,6.675-8.419,36.44-8.802,37.833
				c0,0-1.127,2.589-2.608,1.164C1225.188,838.909,1229.644,801.257,1229.644,801.257z"/>
		</g>
		<g>
			<path fill="#EEA886" d="M1115.064,800.142c0,0-6.043-6.711-8.436-0.082c-2.392,6.629,7.62,36.591,8.07,37.996
				c0,0,1.077,2.609,2.585,1.214C1118.792,837.873,1115.064,800.142,1115.064,800.142z"/>
		</g>
		<g>
			<path fill="#434343" d="M1229.616,814.782l-8.069,10.788c0,0,0.229-23.65-1.066-27.358s-3.274-15.037-4.357-17.709
				c-1.083-2.671-48.402-15.932-90.199,3.872c0,0,1.838,17.006-2.168,18.519c-4.006,1.514-2.042,27.698-2.042,27.698l-6.635-7.486
				c0,0-10.155-67.846-7.647-74.918c2.508-7.071,10.499-49.586,96.249-24.349c0,0,26.732-5.661,32.098,12.795
				C1241.145,755.091,1229.616,814.782,1229.616,814.782z"/>
		</g>
		<path fill="#282C47" d="M1098.063,1378.695c0,0-86.281-51.708-123.964-59.841c-35.611-7.688-48.598-21.004-48.598-21.004
			s56.628,0,94.312,26.77C1045.402,1342.798,1098.063,1378.695,1098.063,1378.695z"/>
		<path fill="#282C47" d="M1174.711,1414.746c0,0,150.07-78.801,211.34-95.892c35.092-9.789,48.598-21.004,48.598-21.004
			s-92.776,9.061-149.198,43.037C1258.561,1357.08,1174.711,1414.746,1174.711,1414.746z"/>
		<path fill="#EEA886" d="M1119.878,1494.203c-9.909,3.954-20.108,6.512-26.589,8.538c-9.884,3.089-88.34,5.56-104.401,8.648
			c-16.062,3.089-48.186,8.031-61.158-4.324c-12.973-12.355,8.031-38.919,25.946-45.715c17.915-6.795,83.397-8.648,95.135-9.884
			c11.737-1.235,27.182-5.56,34.595-3.089c2.341,0.778,12.695-2.261,25.767-6.777
			C1109.567,1449.44,1119.878,1494.203,1119.878,1494.203z"/>
		<path fill="#404773" d="M1174.711,1486.735l147.53-43.655l-29.173-8.911C1293.068,1434.169,1175.169,1476.908,1174.711,1486.735z"
			/>
		<polygon fill="#282C47" points="1174.711,1486.735 1243.751,1465.675 1195.88,1493.475 		"/>
		<path fill="#525252" d="M1127.291,1310.302c-0.136-0.08-1.242-0.729-3.107-1.822
			C1125.419,1309.122,1126.463,1309.733,1127.291,1310.302z"/>
		<path fill="#C5CDDB" d="M1093.289,1502.741c-9.884,3.089-88.34,5.56-104.401,8.648c-16.062,3.089-48.186,8.031-61.158-4.324
			c-12.973-12.355,8.031-38.919,25.946-45.715c17.915-6.795,83.397-8.648,95.135-9.884c11.737-1.235,27.182-5.56,34.595-3.089
			C1083.405,1448.378,1063.6,1478.648,1093.289,1502.741z"/>
		<path fill="#D44D4D" d="M1252.157,941.277c0,0-23.635,103.853-79.926,103.853c-56.284,0-87.382-100.263-87.382-100.263
			s0.012-0.007,0.031-0.019c26.514-9.291,51.484-17.656,51.484-17.656h72.074C1208.438,927.192,1231.265,934.519,1252.157,941.277z"
			/>
		<path fill="#EDDAD3" d="M1044.523,1297.851l-22.732-129.318l293.93-6.796l-18.931,127.259c0,0-93.822,34.344-125.665,54.373
			C1171.125,1343.368,1090.649,1310.302,1044.523,1297.851z"/>
		<path fill="#EEA886" d="M1209.175,927.432c-0.024-0.08-0.044-0.161-0.079-0.238c-3.51-7.853-1.796-46.133-1.796-46.133
			s-71.787-18.271-69.737-4.3c2.048,13.972-6.184,52.109-6.184,52.109l-36.828,12.607c0,0,39.237,105.356,84.334,91.765
			c45.096-13.591,62.124-95.563,62.124-95.563L1209.175,927.432z"/>
		<path fill="#A77860" d="M1137.448,890.95c0,0,12.712,16.262,32.79,16.262c13.205,0,23.627-4.612,36.781-17.438
			c0,0-6.646,25.27-36.695,27.535C1170.324,917.31,1147.386,918.748,1137.448,890.95z"/>
	</g>
	<ellipse fill="#939AA3" cx="1284.775" cy="1642.899" rx="889.13" ry="25.363"/>
	<g>
		<circle fill="#B0B0D9" cx="1502.818" cy="817.284" r="132.675"/>
		<linearGradient id="SVGID_5_" gradientUnits="userSpaceOnUse" x1="1479.8597" y1="765.9202" x2="1591.1174" y2="1014.8357">
			<stop  offset="0" style="stop-color:#FFFFFF"/>
			<stop  offset="1" style="stop-color:#CFCFCF"/>
		</linearGradient>
		<circle fill="url(#SVGID_5_)" cx="1502.818" cy="817.284" r="112.584"/>
		<g>
			<path fill="#7A7AB5" d="M1498.154,913.599c-0.003-2.606,2.109-4.723,4.717-4.723l0,0c2.605-0.002,4.719,2.11,4.722,4.717l0,0
				c0,2.606-2.11,4.719-4.716,4.723l0,0C1500.271,918.315,1498.154,916.205,1498.154,913.599z M1452.357,904.83L1452.357,904.83
				L1452.357,904.83c-1.518-0.877-2.363-2.466-2.36-4.101l0,0c0.003-0.798,0.207-1.605,0.634-2.348l0,0
				c1.303-2.256,4.189-3.029,6.448-1.727l0,0c1.517,0.877,2.362,2.466,2.359,4.102l0,0c-0.003,0.797-0.207,1.608-0.633,2.347l0,0
				c-0.878,1.514-2.46,2.36-4.092,2.36l0,0C1453.913,905.464,1453.1,905.26,1452.357,904.83z M1546.926,903.056
				c-0.432-0.749-0.639-1.568-0.636-2.375l0,0c0.006-1.626,0.85-3.203,2.356-4.074l0,0c2.254-1.306,5.142-0.539,6.449,1.718l0,0
				c0.426,0.739,0.633,1.55,0.636,2.347l0,0c0.003,1.633-0.841,3.225-2.356,4.102l0,0c-0.746,0.433-1.559,0.637-2.359,0.637l0,0
				C1549.387,905.409,1547.801,904.565,1546.926,903.056z M1415.358,867.893c-0.436-0.749-0.64-1.568-0.64-2.375l0,0
				c0.006-1.626,0.85-3.203,2.354-4.076l0,0c2.256-1.307,5.143-0.539,6.451,1.717l0,0c0.433,0.749,0.64,1.565,0.637,2.372l0,0
				c-0.003,1.625-0.846,3.203-2.354,4.076l0,0c-0.742,0.433-1.559,0.637-2.363,0.637l0,0
				C1417.818,870.243,1416.232,869.399,1415.358,867.893z M1583.885,869.519c-1.516-0.877-2.358-2.469-2.355-4.104l0,0
				c0.002-0.798,0.207-1.605,0.636-2.344l0,0c1.303-2.257,4.189-3.03,6.446-1.724l0,0c1.516,0.877,2.361,2.466,2.359,4.102l0,0
				c-0.004,0.797-0.207,1.608-0.637,2.347l0,0c-0.874,1.511-2.46,2.357-4.089,2.357l0,0
				C1585.441,870.151,1584.631,869.948,1583.885,869.519z M1401.788,817.4c-0.003-2.606,2.106-4.723,4.714-4.726l0,0
				c2.605-0.003,4.722,2.107,4.724,4.713l0,0c0.003,2.606-2.109,4.723-4.713,4.726l0,0c-0.004,0-0.007,0-0.007,0l0,0
				C1403.901,822.113,1401.791,820.003,1401.788,817.4z M1594.41,817.284L1594.41,817.284c0-0.033,0-0.066,0-0.1l0,0
				c0-0.037,0-0.073,0-0.11l0,0c-0.006-2.609,2.102-4.726,4.708-4.731l0,0c2.605-0.006,4.725,2.105,4.731,4.707l0,0
				c0,0.043,0,0.082-0.003,0.125l0,0c0.003,0.037,0.003,0.073,0.003,0.109l0,0c0,2.606-2.113,4.72-4.72,4.72l0,0
				C1596.523,822.004,1594.41,819.891,1594.41,817.284z M1416.976,773.32c-1.52-0.877-2.366-2.467-2.363-4.099l0,0
				c0-0.798,0.204-1.607,0.631-2.348l0,0c1.302-2.259,4.188-3.032,6.445-1.729l0,0c1.519,0.873,2.365,2.463,2.362,4.098l0,0
				c0,0.798-0.204,1.604-0.631,2.348l0,0c-0.873,1.513-2.463,2.359-4.092,2.359l0,0
				C1418.527,773.95,1417.715,773.749,1416.976,773.32z M1582.059,771.319h0.003c-0.436-0.749-0.643-1.564-0.643-2.375l0,0
				c0.004-1.622,0.844-3.202,2.348-4.076l0,0c2.253-1.31,5.143-0.545,6.455,1.708l0,0c0.432,0.749,0.64,1.564,0.64,2.375l0,0
				c-0.004,1.622-0.844,3.202-2.352,4.076l0,0c-0.746,0.436-1.562,0.64-2.365,0.64l0,0
				C1584.519,773.667,1582.936,772.827,1582.059,771.319z M1450.447,736.303c-0.436-0.749-0.639-1.564-0.639-2.374l0,0
				c0.003-1.623,0.847-3.2,2.351-4.077l0,0c2.256-1.307,5.142-0.542,6.451,1.714l0,0c0.436,0.746,0.64,1.565,0.64,2.372l0,0
				c-0.003,1.626-0.844,3.203-2.351,4.077l0,0c-0.746,0.435-1.562,0.639-2.365,0.639l0,0
				C1452.908,738.653,1451.324,737.813,1450.447,736.303z M1548.467,737.858c-1.52-0.873-2.365-2.463-2.365-4.098l0,0
				c0-0.798,0.204-1.604,0.63-2.348l0,0c1.304-2.259,4.187-3.032,6.446-1.732l0,0c1.516,0.874,2.365,2.463,2.365,4.099l0,0
				c0,0.798-0.204,1.604-0.631,2.347l0,0c-0.873,1.517-2.463,2.363-4.095,2.363l0,0
				C1550.017,738.489,1549.207,738.285,1548.467,737.858z M1497.932,720.979c-0.002-2.606,2.107-4.723,4.713-4.726l0,0
				c2.607-0.006,4.723,2.104,4.726,4.71l0,0c0.007,2.606-2.104,4.723-4.71,4.728l0,0c-0.003,0-0.006,0-0.009,0l0,0
				C1500.048,725.692,1497.938,723.586,1497.932,720.979z"/>
		</g>
		<g>
			<path fill="#7A7AB5" d="M1555.872,753.3c-0.066,0.412-0.215,0.818-0.451,1.194l-48.517,77.162l-80.052-12.808
				c-1.743-0.278-2.931-1.918-2.651-3.661s1.918-2.931,3.662-2.651l75.878,12.139l46.267-73.584
				c0.939-1.494,2.914-1.944,4.408-1.004C1555.535,750.79,1556.068,752.072,1555.872,753.3z"/>
		</g>
	</g>
	<g>
		<circle fill="#B0B0D9" cx="1176.593" cy="508.822" r="132.675"/>
		<linearGradient id="SVGID_6_" gradientUnits="userSpaceOnUse" x1="1153.6344" y1="457.4588" x2="1264.8917" y2="706.3734">
			<stop  offset="0" style="stop-color:#FFFFFF"/>
			<stop  offset="1" style="stop-color:#CFCFCF"/>
		</linearGradient>
		<circle fill="url(#SVGID_6_)" cx="1176.592" cy="508.822" r="112.584"/>
		<g>
			<path fill="#7A7AB5" d="M1171.929,605.138c-0.003-2.606,2.11-4.723,4.716-4.723l0,0c2.606-0.003,4.719,2.109,4.722,4.716l0,0
				c0,2.606-2.11,4.72-4.716,4.723l0,0C1174.045,609.854,1171.929,607.743,1171.929,605.138z M1126.131,596.368L1126.131,596.368
				L1126.131,596.368c-1.516-0.876-2.362-2.466-2.359-4.101l0,0c0.003-0.798,0.207-1.604,0.633-2.348l0,0
				c1.303-2.256,4.189-3.029,6.449-1.727l0,0c1.516,0.877,2.362,2.467,2.359,4.102l0,0c-0.003,0.798-0.207,1.607-0.633,2.348l0,0
				c-0.877,1.513-2.46,2.359-4.092,2.359l0,0C1127.687,597.002,1126.874,596.798,1126.131,596.368z M1220.701,594.594
				c-0.433-0.749-0.64-1.568-0.637-2.375l0,0c0.007-1.626,0.849-3.203,2.356-4.074l0,0c2.253-1.306,5.143-0.538,6.448,1.718l0,0
				c0.427,0.739,0.634,1.55,0.637,2.348l0,0c0.003,1.632-0.84,3.224-2.356,4.101l0,0c-0.746,0.433-1.56,0.637-2.359,0.637l0,0
				C1223.161,596.947,1221.574,596.104,1220.701,594.594z M1089.133,559.431c-0.436-0.749-0.64-1.567-0.64-2.374l0,0
				c0.006-1.626,0.85-3.203,2.354-4.077l0,0c2.256-1.307,5.143-0.539,6.452,1.717l0,0c0.433,0.749,0.639,1.565,0.636,2.372l0,0
				c-0.003,1.626-0.846,3.203-2.354,4.077l0,0c-0.743,0.432-1.559,0.636-2.362,0.636l0,0
				C1091.593,561.781,1090.006,560.938,1089.133,559.431z M1257.66,561.057c-1.517-0.877-2.359-2.469-2.357-4.104l0,0
				c0.004-0.797,0.207-1.604,0.637-2.344l0,0c1.304-2.256,4.189-3.029,6.445-1.724l0,0c1.517,0.877,2.363,2.466,2.359,4.102l0,0
				c-0.002,0.798-0.206,1.607-0.636,2.348l0,0c-0.874,1.51-2.46,2.356-4.089,2.356l0,0
				C1259.215,561.69,1258.406,561.486,1257.66,561.057z M1075.563,508.939c-0.003-2.607,2.107-4.722,4.713-4.726l0,0
				c2.606-0.003,4.722,2.107,4.725,4.714l0,0c0.003,2.605-2.11,4.722-4.713,4.725l0,0c-0.003,0-0.006,0-0.006,0l0,0
				C1077.676,513.651,1075.565,511.542,1075.563,508.939z M1268.186,508.823L1268.186,508.823c0-0.034,0-0.067,0-0.101l0,0
				c0-0.037,0-0.073,0-0.11l0,0c-0.006-2.608,2.101-4.725,4.707-4.73l0,0c2.605-0.007,4.725,2.104,4.73,4.707l0,0
				c0,0.042,0,0.082-0.002,0.124l0,0c0.002,0.037,0.002,0.073,0.002,0.11l0,0c0,2.605-2.112,4.719-4.719,4.719l0,0
				C1270.298,513.542,1268.186,511.429,1268.186,508.823z M1090.75,464.858c-1.519-0.877-2.366-2.467-2.363-4.098l0,0
				c0-0.799,0.204-1.608,0.63-2.348l0,0c1.303-2.26,4.189-3.033,6.445-1.729l0,0c1.52,0.874,2.366,2.463,2.363,4.098l0,0
				c0,0.798-0.204,1.604-0.63,2.348l0,0c-0.874,1.513-2.463,2.359-4.092,2.359l0,0
				C1092.302,465.488,1091.489,465.288,1090.75,464.858z M1255.833,462.857h0.003c-0.435-0.749-0.643-1.564-0.643-2.374l0,0
				c0.004-1.623,0.844-3.203,2.348-4.077l0,0c2.253-1.31,5.143-0.545,6.455,1.708l0,0c0.432,0.749,0.639,1.565,0.639,2.375l0,0
				c-0.003,1.623-0.843,3.203-2.35,4.077l0,0c-0.746,0.435-1.563,0.639-2.366,0.639l0,0
				C1258.293,465.205,1256.71,464.365,1255.833,462.857z M1124.222,427.842c-0.436-0.749-0.639-1.565-0.639-2.375l0,0
				c0.003-1.623,0.846-3.2,2.35-4.077l0,0c2.256-1.306,5.143-0.542,6.452,1.715l0,0c0.436,0.745,0.64,1.565,0.64,2.371l0,0
				c-0.003,1.626-0.844,3.203-2.351,4.077l0,0c-0.746,0.436-1.562,0.64-2.366,0.64l0,0
				C1126.682,430.192,1125.099,429.352,1124.222,427.842z M1222.241,429.397c-1.519-0.874-2.365-2.463-2.365-4.099l0,0
				c0-0.798,0.204-1.604,0.63-2.347l0,0c1.304-2.26,4.187-3.033,6.445-1.733l0,0c1.517,0.873,2.366,2.463,2.366,4.098l0,0
				c0,0.798-0.204,1.604-0.63,2.348l0,0c-0.874,1.516-2.464,2.362-4.096,2.362l0,0
				C1223.791,430.027,1222.981,429.823,1222.241,429.397z M1171.707,412.518c-0.003-2.607,2.107-4.722,4.713-4.726l0,0
				c2.606-0.006,4.722,2.105,4.726,4.711l0,0c0.006,2.605-2.104,4.722-4.71,4.728l0,0c-0.003,0-0.006,0-0.009,0l0,0
				C1173.822,417.23,1171.712,415.124,1171.707,412.518z"/>
		</g>
		<g>
			<path fill="#7A7AB5" d="M1256.796,546.909c-0.418,0-0.843-0.082-1.251-0.256l-83.857-35.718v-81.069
				c0-1.766,1.431-3.197,3.197-3.197s3.197,1.432,3.197,3.197v76.843l79.969,34.061c1.624,0.692,2.381,2.57,1.688,4.194
				C1259.221,546.181,1258.039,546.909,1256.796,546.909z"/>
		</g>
	</g>
	<g>
		<circle fill="#B0B0D9" cx="840.716" cy="812.675" r="132.675"/>
		<linearGradient id="SVGID_7_" gradientUnits="userSpaceOnUse" x1="817.7574" y1="761.3113" x2="929.0146" y2="1010.2257">
			<stop  offset="0" style="stop-color:#FFFFFF"/>
			<stop  offset="1" style="stop-color:#CFCFCF"/>
		</linearGradient>
		<circle fill="url(#SVGID_7_)" cx="840.715" cy="812.675" r="112.585"/>
		<g>
			<path fill="#7A7AB5" d="M836.052,908.989c-0.003-2.606,2.11-4.722,4.716-4.722l0,0c2.606-0.003,4.719,2.11,4.722,4.716l0,0
				c0,2.606-2.11,4.72-4.716,4.723l0,0C838.168,913.706,836.052,911.596,836.052,908.989z M790.254,900.222L790.254,900.222
				L790.254,900.222c-1.516-0.877-2.363-2.467-2.36-4.102l0,0c0.003-0.798,0.207-1.604,0.633-2.348l0,0
				c1.303-2.256,4.19-3.029,6.449-1.727l0,0c1.516,0.877,2.363,2.467,2.359,4.102l0,0c-0.003,0.798-0.207,1.607-0.633,2.348l0,0
				c-0.877,1.513-2.46,2.359-4.092,2.359l0,0C791.81,900.854,790.997,900.65,790.254,900.222z M884.824,898.446
				c-0.432-0.749-0.639-1.568-0.636-2.375l0,0c0.006-1.626,0.85-3.203,2.357-4.074l0,0c2.253-1.306,5.142-0.538,6.448,1.718l0,0
				c0.426,0.74,0.633,1.55,0.637,2.348l0,0c0.003,1.632-0.84,3.224-2.357,4.101l0,0c-0.746,0.433-1.558,0.637-2.359,0.637l0,0
				C887.284,900.8,885.698,899.956,884.824,898.446z M753.256,863.283c-0.435-0.749-0.64-1.567-0.64-2.374l0,0
				c0.006-1.626,0.85-3.203,2.354-4.077l0,0c2.256-1.306,5.143-0.539,6.452,1.717l0,0c0.432,0.749,0.639,1.565,0.636,2.372l0,0
				c-0.003,1.626-0.846,3.203-2.353,4.077l0,0c-0.743,0.432-1.559,0.636-2.363,0.636l0,0
				C755.716,865.634,754.13,864.791,753.256,863.283z M921.783,864.909c-1.517-0.877-2.36-2.469-2.357-4.103l0,0
				c0.003-0.798,0.207-1.606,0.636-2.345l0,0c1.303-2.256,4.189-3.029,6.446-1.724l0,0c1.516,0.877,2.363,2.467,2.359,4.102l0,0
				c-0.003,0.798-0.207,1.607-0.636,2.348l0,0c-0.874,1.51-2.46,2.357-4.089,2.357l0,0
				C923.339,865.543,922.529,865.339,921.783,864.909z M739.686,812.791c-0.003-2.606,2.107-4.722,4.713-4.726l0,0
				c2.606-0.003,4.722,2.107,4.725,4.714l0,0c0.003,2.606-2.11,4.722-4.713,4.725l0,0c-0.003,0-0.006,0-0.006,0l0,0
				C741.799,817.504,739.689,815.394,739.686,812.791z M932.308,812.676L932.308,812.676c0-0.034,0-0.067,0-0.101l0,0
				c0-0.037,0-0.073,0-0.109l0,0c-0.006-2.609,2.101-4.726,4.708-4.731l0,0c2.606-0.007,4.725,2.104,4.731,4.707l0,0
				c0,0.042,0,0.082-0.003,0.124l0,0c0.003,0.037,0.003,0.073,0.003,0.11l0,0c0,2.606-2.113,4.719-4.719,4.719l0,0
				C934.421,817.394,932.308,815.282,932.308,812.676z M754.872,768.711c-1.519-0.877-2.366-2.466-2.363-4.099l0,0
				c0-0.797,0.204-1.607,0.63-2.347l0,0c1.303-2.26,4.19-3.032,6.445-1.73l0,0c1.52,0.874,2.366,2.463,2.363,4.098l0,0
				c0,0.798-0.204,1.604-0.63,2.348l0,0c-0.874,1.514-2.463,2.359-4.092,2.359l0,0C756.425,769.341,755.612,769.141,754.872,768.711
				z M919.956,766.711h0.003c-0.435-0.749-0.642-1.565-0.642-2.375l0,0c0.003-1.623,0.843-3.203,2.347-4.077l0,0
				c2.253-1.309,5.143-0.545,6.455,1.708l0,0c0.433,0.749,0.64,1.565,0.64,2.375l0,0c-0.003,1.623-0.843,3.203-2.351,4.077l0,0
				c-0.746,0.435-1.562,0.639-2.366,0.639l0,0C922.416,769.058,920.833,768.218,919.956,766.711z M788.345,731.694
				c-0.435-0.749-0.639-1.565-0.639-2.375l0,0c0.003-1.623,0.846-3.2,2.351-4.077l0,0c2.256-1.306,5.142-0.542,6.451,1.714l0,0
				c0.435,0.746,0.64,1.565,0.64,2.372l0,0c-0.003,1.626-0.844,3.203-2.351,4.077l0,0c-0.746,0.436-1.562,0.64-2.366,0.64l0,0
				C790.806,734.045,789.222,733.204,788.345,731.694z M886.365,733.25c-1.519-0.874-2.366-2.463-2.366-4.099l0,0
				c0-0.797,0.204-1.605,0.63-2.347l0,0c1.303-2.26,4.186-3.032,6.445-1.732l0,0c1.516,0.874,2.366,2.463,2.366,4.098l0,0
				c0,0.798-0.204,1.604-0.63,2.348l0,0c-0.873,1.517-2.463,2.362-4.095,2.362l0,0C887.914,733.88,887.104,733.676,886.365,733.25z
				 M835.83,716.37c-0.003-2.605,2.107-4.722,4.713-4.725l0,0c2.606-0.007,4.722,2.104,4.725,4.71l0,0
				c0.006,2.605-2.104,4.722-4.71,4.727l0,0c-0.003,0-0.006,0-0.009,0l0,0C837.945,721.083,835.836,718.977,835.83,716.37z"/>
		</g>
		<g>
			<path fill="#7A7AB5" d="M847.327,896.669c-0.203-0.365-0.337-0.776-0.384-1.219l-9.541-90.646l70.851-39.401
				c1.543-0.857,3.49-0.303,4.348,1.24c0.858,1.543,0.303,3.49-1.24,4.348l-67.157,37.348l9.098,86.443
				c0.185,1.756-1.089,3.329-2.845,3.514C849.143,898.434,847.931,897.755,847.327,896.669z"/>
		</g>
	</g>
	<g>
		<g>
			<path fill="#9CB839" d="M2001.609,1486.951l-1.821-0.096c0.034-0.668,3.517-67.672,2.547-146.456
				c-0.894-72.667-5.863-170.492-24.462-223.861l1.723-0.601c18.681,53.604,23.668,151.644,24.564,224.45
				C2005.13,1419.229,2001.645,1486.283,2001.609,1486.951z"/>
		</g>
		<g>
			<path fill="#9CB839" d="M2028.026,1486.95c-0.22-4.303-22.283-431.697-50.184-560.35l1.783-0.387
				c27.932,128.797,50.003,556.34,50.223,560.643L2028.026,1486.95z"/>
		</g>
		<g>
			<linearGradient id="SVGID_8_" gradientUnits="userSpaceOnUse" x1="2007.8644" y1="1272.832" x2="2019.5967" y2="1272.832">
				<stop  offset="0" style="stop-color:#688027"/>
				<stop  offset="1" style="stop-color:#9CB839"/>
			</linearGradient>
			<path fill="url(#SVGID_8_)" d="M2017.775,1501.209c-0.193-3.798-19.024-380.651-4.271-456.754l1.79,0.348
				c-14.712,75.887,4.11,452.519,4.302,456.314L2017.775,1501.209z"/>
		</g>
		<g>
			<linearGradient id="SVGID_9_" gradientUnits="userSpaceOnUse" x1="2014.7178" y1="1338.2905" x2="2033.7852" y2="1338.2905">
				<stop  offset="0" style="stop-color:#688027"/>
				<stop  offset="1" style="stop-color:#9CB839"/>
			</linearGradient>
			<path fill="url(#SVGID_9_)" d="M2016.542,1492.901h-1.824c0-2.119,0.196-212.987,17.271-309.222l1.797,0.319
				C2016.739,1280.075,2016.542,1490.784,2016.542,1492.901z"/>
		</g>
		<linearGradient id="SVGID_10_" gradientUnits="userSpaceOnUse" x1="2024.9639" y1="1140.1418" x2="2164.6152" y2="1140.1418">
			<stop  offset="0" style="stop-color:#688027"/>
			<stop  offset="1" style="stop-color:#9CB839"/>
		</linearGradient>
		<path fill="url(#SVGID_10_)" d="M2164.615,1101.126c0,0-35.651-111.047-82.722-50.231
			c-32.496,41.986-36.888,84.019-46.908,116.691c-4.392,14.316-7.039,29.106-7.915,44.055l-2.106,35.953
			C2127.085,981.051,2164.615,1101.126,2164.615,1101.126z"/>
		<linearGradient id="SVGID_11_" gradientUnits="userSpaceOnUse" x1="2012.5992" y1="1206.3059" x2="2147.3816" y2="853.577">
			<stop  offset="0" style="stop-color:#688027"/>
			<stop  offset="1" style="stop-color:#9CB839"/>
		</linearGradient>
		<path fill="url(#SVGID_11_)" d="M2188.402,947.361c0,0,18.845-122.676-88.087-67.983c-102.465,52.408-90.991,210-90.991,210
			c6.139-26.285,27.608-70.031,64.91-114.959C2121.346,917.674,2188.402,947.361,2188.402,947.361z"/>
		<linearGradient id="SVGID_12_" gradientUnits="userSpaceOnUse" x1="2017.6055" y1="1369.0027" x2="2081.8936" y2="1369.0027">
			<stop  offset="0" style="stop-color:#688027"/>
			<stop  offset="1" style="stop-color:#9CB839"/>
		</linearGradient>
		<path fill="url(#SVGID_12_)" d="M2081.894,1340.2c-60.981-12.027-64.288,40.242-64.288,40.242v19.16
			C2022.76,1366.59,2081.894,1340.2,2081.894,1340.2z"/>
		<linearGradient id="SVGID_13_" gradientUnits="userSpaceOnUse" x1="1839.752" y1="938.6747" x2="2000.2352" y2="938.6747">
			<stop  offset="0" style="stop-color:#688027"/>
			<stop  offset="1" style="stop-color:#9CB839"/>
		</linearGradient>
		<path fill="url(#SVGID_13_)" d="M1955.702,834.028c-59.616-44.712-115.95-21.362-115.95-21.362s114.599,5.563,158.099,258.111
			C1997.851,1070.777,2015.318,878.74,1955.702,834.028z"/>
		<linearGradient id="SVGID_14_" gradientUnits="userSpaceOnUse" x1="1882.1592" y1="1105.6323" x2="1996.9775" y2="1105.6323">
			<stop  offset="0" style="stop-color:#688027"/>
			<stop  offset="1" style="stop-color:#9CB839"/>
		</linearGradient>
		<path fill="url(#SVGID_14_)" d="M1882.159,993.083c0,0,95.589,123.908,114.818,225.099l-2.108-23.665
			C1994.869,1194.517,2007.864,997.875,1882.159,993.083z"/>
		<path fill="#9CB839" d="M1996.978,1218.182l3.291,36.92C2000.618,1243.353,1999.404,1230.947,1996.978,1218.182z"/>
		<linearGradient id="SVGID_15_" gradientUnits="userSpaceOnUse" x1="1922.9482" y1="1309.6495" x2="2003.3936" y2="1309.6495">
			<stop  offset="0" style="stop-color:#688027"/>
			<stop  offset="1" style="stop-color:#9CB839"/>
		</linearGradient>
		<path fill="url(#SVGID_15_)" d="M1922.948,1262.925c0,0,75.39,78.438,80.445,94.912
			C2003.394,1357.837,1991.101,1247.594,1922.948,1262.925z"/>
		<linearGradient id="SVGID_16_" gradientUnits="userSpaceOnUse" x1="1955.0094" y1="1767.6464" x2="2002.8046" y2="1551.6122">
			<stop  offset="0" style="stop-color:#806069"/>
			<stop  offset="1" style="stop-color:#E3C496"/>
		</linearGradient>
		<polygon fill="url(#SVGID_16_)" points="2077.213,1641.738 2104.473,1477.009 1924.962,1477.009 1952.22,1641.738 		"/>
		<linearGradient id="SVGID_17_" gradientUnits="userSpaceOnUse" x1="1786.0706" y1="1559.0013" x2="2063.2822" y2="1432.8223">
			<stop  offset="0" style="stop-color:#806069"/>
			<stop  offset="1" style="stop-color:#E3C496"/>
		</linearGradient>
		<rect x="1908.089" y="1432.847" fill="url(#SVGID_17_)" width="213.257" height="44.162"/>
		<linearGradient id="SVGID_18_" gradientUnits="userSpaceOnUse" x1="1845.0535" y1="1436.5938" x2="2144.7275" y2="1637.3323">
			<stop  offset="0" style="stop-color:#806069"/>
			<stop  offset="1" style="stop-color:#E3C496"/>
		</linearGradient>
		<path fill="url(#SVGID_18_)" d="M2104.473,1477.009h-179.511l27.258,164.729h30.69c0,0-30.018-127.862,115.68-129.181
			L2104.473,1477.009z"/>
	</g>
	<g>
		<g>
			<path fill="#2A2E4A" d="M1862.076,1465.404l-101.958-0.122c-10.354-0.012-18.768-8.446-18.756-18.801l0.077-64.294
				c0.012-10.354,8.446-18.768,18.801-18.756l101.957,0.122c10.354,0.012,18.77,8.446,18.756,18.801l-0.076,64.294
				C1880.864,1457.003,1872.431,1465.417,1862.076,1465.404z M1760.226,1376.033c-3.407-0.004-6.181,2.764-6.185,6.17l-0.077,64.294
				c-0.004,3.406,2.764,6.18,6.169,6.185l101.959,0.121c3.405,0.004,6.18-2.764,6.184-6.169l0.077-64.295
				c0.004-3.405-2.764-6.18-6.17-6.184L1760.226,1376.033z"/>
		</g>
		<g>
			<linearGradient id="SVGID_19_" gradientUnits="userSpaceOnUse" x1="1758.3292" y1="1423.6421" x2="1921.0049" y2="1748.9928">
				<stop  offset="0" style="stop-color:#2A2E4A"/>
				<stop  offset="1" style="stop-color:#484F80"/>
			</linearGradient>
			<polygon fill="url(#SVGID_19_)" points="1988.999,1643.847 1632.771,1643.422 1633.044,1414.206 1989.272,1414.631 			"/>
		</g>
		<g>
			
				<rect x="1632.983" y="1414.418" transform="matrix(1 0.0012 -0.0012 1 1.7487 -2.1587)" fill="#404773" width="356.229" height="101.779"/>
		</g>
		<g>
			
				<rect x="1786.494" y="1492.218" transform="matrix(1 0.0012 -0.0012 1 1.7897 -2.1593)" fill="#626EB0" width="49.126" height="14.036"/>
		</g>
	</g>
	<g>
		<path opacity="0.72" fill="#D9D9D9" d="M1859.428,527.444h-187.371c-3.824,0-6.926-3.1-6.926-6.926v-10.178
			c0-3.825,3.102-6.926,6.926-6.926h187.371c3.825,0,6.926,3.101,6.926,6.926v10.178
			C1866.354,524.344,1863.253,527.444,1859.428,527.444z"/>
		<path opacity="0.72" fill="#D9D9D9" d="M1905.438,566.294h-233.11c-3.974,0-7.196-3.222-7.196-7.195v-9.639
			c0-3.974,3.223-7.195,7.196-7.195h233.11c3.975,0,7.195,3.222,7.195,7.195v9.639
			C1912.633,563.072,1909.412,566.294,1905.438,566.294z"/>
	</g>
	<path opacity="0.72" fill="#D9D9D9" d="M1536.931,586.13h64.325c11.697,0,21.18-9.482,21.18-21.18v-64.325
		c0-11.697-9.482-21.18-21.18-21.18h-64.325c-11.696,0-21.18,9.482-21.18,21.18v64.325
		C1515.751,576.648,1525.234,586.13,1536.931,586.13z"/>
	<g>
		<g>
			<g>
				<g>
					<g>
						<path fill="#8383C9" d="M1565.451,558.571l-29.605-25.723c-2.428-2.109-2.686-5.788-0.576-8.215
							c2.109-2.428,5.787-2.686,8.215-0.577l20.936,18.19l29.755-33.3c2.144-2.398,5.825-2.605,8.223-0.463
							c2.397,2.143,2.604,5.824,0.462,8.223L1565.451,558.571z"/>
					</g>
				</g>
			</g>
		</g>
	</g>
	<path opacity="0.72" fill="#D9D9D9" d="M407.858,1133.97h64.325c11.697,0,21.18-9.482,21.18-21.18v-64.325
		c0-11.697-9.482-21.18-21.18-21.18h-64.325c-11.697,0-21.179,9.482-21.179,21.18v64.325
		C386.679,1124.487,396.161,1133.97,407.858,1133.97z"/>
	<g>
		<g>
			<g>
				<g>
					<g>
						<path fill="#8383C9" d="M436.378,1106.411l-29.605-25.723c-2.428-2.109-2.685-5.787-0.577-8.215
							c2.11-2.428,5.787-2.685,8.215-0.576l20.935,18.189l29.755-33.3c2.143-2.398,5.825-2.605,8.222-0.462
							c2.398,2.143,2.605,5.823,0.462,8.222L436.378,1106.411z"/>
					</g>
				</g>
			</g>
		</g>
	</g>
	<g>
		<path opacity="0.72" fill="#D9D9D9" d="M565.034,600.342h64.325c11.697,0,21.18-9.482,21.18-21.18v-64.325
			c0-11.697-9.482-21.18-21.18-21.18h-64.325c-11.697,0-21.18,9.483-21.18,21.18v64.325
			C543.854,590.859,553.336,600.342,565.034,600.342z"/>
		<g>
			<g>
				<g>
					<g>
						<g>
							<path fill="#8383C9" d="M593.554,572.783l-29.605-25.723c-2.428-2.109-2.686-5.787-0.577-8.215
								c2.109-2.427,5.787-2.685,8.215-0.576l20.935,18.191l29.755-33.301c2.143-2.398,5.825-2.605,8.222-0.462
								c2.398,2.142,2.605,5.823,0.462,8.222L593.554,572.783z"/>
						</g>
					</g>
				</g>
			</g>
		</g>
		<g>
			<path opacity="0.72" fill="#D9D9D9" d="M886.818,544.802H699.447c-3.825,0-6.926-3.101-6.926-6.926v-10.178
				c0-3.825,3.101-6.926,6.926-6.926h187.371c3.825,0,6.926,3.101,6.926,6.926v10.178
				C893.744,541.701,890.643,544.802,886.818,544.802z"/>
			<path opacity="0.72" fill="#D9D9D9" d="M853.172,583.651H698.424c-3.26,0-5.902-2.643-5.902-5.902v-12.224
				c0-3.26,2.643-5.903,5.902-5.903h154.749c3.26,0,5.903,2.644,5.903,5.903v12.224
				C859.075,581.009,856.432,583.651,853.172,583.651z"/>
		</g>
	</g>
	<g>
		<path opacity="0.72" fill="#D9D9D9" d="M800.235,1075.731H544.65c-4.444,0-8.047-3.604-8.047-8.048v-7.935
			c0-4.444,3.603-8.047,8.047-8.047h255.585c4.444,0,8.047,3.603,8.047,8.047v7.935
			C808.282,1072.128,804.679,1075.731,800.235,1075.731z"/>
		<path opacity="0.72" fill="#D9D9D9" d="M677.649,1114.581H542.141c-3.059,0-5.538-2.479-5.538-5.538v-12.954
			c0-3.059,2.479-5.537,5.538-5.537h135.509c3.058,0,5.538,2.479,5.538,5.537v12.954
			C683.187,1112.102,680.708,1114.581,677.649,1114.581z"/>
	</g>
</g>
</svg>
