<?xml version="1.0" encoding="utf-8"?>
<!-- Generator: Adobe Illustrator 17.0.0, SVG Export Plug-In . SVG Version: 6.00 Build 0)  -->
<!DOCTYPE svg PUBLIC "-//W3C//DTD SVG 1.1//EN" "http://www.w3.org/Graphics/SVG/1.1/DTD/svg11.dtd">
<svg version="1.1" id="Calque_1" xmlns="http://www.w3.org/2000/svg" xmlns:xlink="http://www.w3.org/1999/xlink" x="0px" y="0px"
	 width="1920px" height="1193px" viewBox="0 0 1920 1193" enable-background="new 0 0 1920 1193" xml:space="preserve">
<g>
	<path fill="#96D9C9" d="M1074.907,413.748l17.719-17.148c-5.544-31.003-34.63-45.926-53.784-47.958
		c-51.579-5.474-77.87,29.987-88.935,86.863c-20.197,103.812,5.231,539.712,5.231,539.712
		c1.901-11.577,141.988-449.32,138.396-569.588L1074.907,413.748z"/>
	<path fill="#3C8F7C" d="M369.852,756.045l-2.198,16.263l-5.264-18.811c-14.794-4.66-27.645-6.256-37.828-3.942
		c-91.009,20.684,66.258,145.846,66.258,145.846s-50.122-31.464-98.662-51.389l-0.616,16.486l-6.209-18.629
		c-37.718-14.765-72.711-21.588-79.703-0.271c-6.583,20.069,6.664,39.07,29.46,55.985l26.204,0.919l-15.446,6.477
		c52.644,33.721,139.732,57.841,169.792,63.327c-28.756-4.517-99.056-13.666-140.718-4.673l6.538,10.879l-16.451-8.226
		c-14.582,4.704-23.639,12.491-22.664,24.753c1.864,23.445,103.592,31.888,103.592,31.888l371.621-3.448l2.069,1.034
		C719.626,1020.515,489.654,799.931,369.852,756.045z"/>
	<path fill="#50BFA5" d="M1535.608,972.942c-7.169-33.281-79.945-43.065-172.712-24.82c33.031-11.288,78.412-36.979,101.913-48.72
		l-16.074-10.229l32.286,1.502c26.406-15.459,39.608-30.645,30.983-44.381c-6.443-10.26-20.577-14.527-39.734-14.477l-10.09,18.056
		l2.095-17.805c-48.324,2.79-59.286-5.098-124.474,21.252c40.736-21.147,46.623-27.707,49.297-36.197l-22.063-9.652h25.853
		c20.899-22.482,54.053-66.956,40.303-87.454c-11.348-16.915-61.168,6.564-92.967,18.763l-13.523,30.427l2.738-25.999
		c-101.102,44.042-66.833,8.706-66.833,8.706s105.539-218.325,43.365-213.417c-24.545,1.937-50.94,16.731-76.861,40.433
		l-0.657,21.702l-7.712-13.771c-18.882,18.507-37.578,40.924-55.424,64.985c24.199-50.824,42.553-100.747,44.377-137.916
		l-18.471-2.239l18.228-12.68c-1.716-18.779-9.154-32.982-24.224-40.49c-23.116-11.515-47.376,5.909-71.261,40.534l5.897,31.252
		l-14.816-17.51c-85.525,139.386-163.725,482.548-163.725,482.548l-6.204,18.612l251.26,12.407
		C1186.375,1026.362,1550.087,1040.165,1535.608,972.942z"/>
	<g>
		<path fill="#184655" d="M1658.363,1028.013H220.464c-2.39,0-4.327-1.864-4.327-4.163c0-2.299,1.937-4.163,4.327-4.163h1437.898
			c2.39,0,4.327,1.864,4.327,4.163C1662.69,1026.149,1660.752,1028.013,1658.363,1028.013z"/>
	</g>
	<path fill="#86B1F2" d="M1166.104,880.162H576.81c-22.508,0-40.755-16.555-40.755-36.976V821.2
		c0-20.421,18.247-36.976,40.755-36.976h589.294l0,0c-26.956,26.732-27.423,67.585-1.083,94.818L1166.104,880.162z"/>
	<path fill="#FAE0B2" d="M1157.849,795.217H861.305c-20.421,0-36.976,16.555-36.976,36.976l0,0
		c0,20.421,16.555,36.976,36.976,36.976h296.569C1144.017,846.485,1144.045,817.841,1157.849,795.217z"/>
	<g>
		<path fill="#355389" d="M1139.568,679.348c1.291-2.219-0.67-4.784-3.654-4.784H666.607c-36.784,0-66.603,24.607-66.603,54.964l0,0
			c0,30.355,29.819,54.963,66.603,54.963h469.438c2.997,0,4.963-2.584,3.659-4.81l0,0
			C1121.119,747.91,1121.167,710.976,1139.568,679.348z"/>
		<path fill="#FAE0B2" d="M1135.828,686.391H820.948c-23.26,0-42.115,18.856-42.115,42.115v3.16
			c0,23.26,18.855,42.116,42.115,42.116h315.55C1122.391,745.775,1122.235,714.386,1135.828,686.391z"/>
	</g>
	<path fill="#FAE0B2" d="M568.416,669.68h302.869c26.858,0,48.63-23.479,48.63-52.441l0,0c0-28.963-21.773-52.441-48.63-52.441
		H568.416l0,0c23.149,29.071,24.054,71.72,2.161,101.902L568.416,669.68z"/>
	<path fill="#466EB6" d="M915.925,617.239L915.925,617.239c0-28.963-22.023-52.441-49.19-52.441H562.907
		c-1.417,0-2.562-1.233-2.549-2.744l0,0c0.013-1.49,1.151-2.691,2.549-2.691h481.982c29.982,0,54.287,25.911,54.287,57.875v0.001
		c0,31.963-24.305,57.875-54.287,57.875H562.909c-1.399,0-2.536-1.201-2.549-2.692l0,0c-0.013-1.51,1.132-2.742,2.549-2.742h303.827
		C893.902,669.68,915.925,646.201,915.925,617.239z"/>
	<g>
		<path fill="#FF4C16" d="M937.393,730.431h-32.411c-6.97,0-12.621,2.162-12.621,4.829v0.433h45.032V730.431z"/>
		<path fill="#F47458" d="M965.04,742.54c0-6.687-8.465-12.109-18.907-12.109H904.54c7.92,0,14.339,4.111,14.339,9.184
			l-0.196,129.789l22.982-16.691l23.424,16.691L965.04,742.54z"/>
	</g>
	<g>
		<path fill="#B75742" d="M1408.401,879.966h-875.63c-27.191,0-49.234,22.043-49.234,49.233v41.412
			c0,27.191,22.043,49.234,49.234,49.234h875.63l-0.458-0.477C1370.483,980.379,1370.685,918.708,1408.401,879.966z"/>
		<path fill="#FAE0B2" d="M1392.9,900.672H924.803c-27.192,0-49.234,22.043-49.234,49.233v0.001
			c0,27.191,22.043,49.234,49.234,49.234h468.088C1375.683,968.654,1375.709,931.134,1392.9,900.672z"/>
	</g>
	<g>
		<path fill="#13375B" d="M1163.064,950.161h-37.961c-8.164,0-14.782,6.618-14.782,14.781v1.323h52.743V950.161z"/>
		<path fill="#355389" d="M1126.656,950.216c9.073-0.004,22.624,7.674,30.266,17.152l90.038,111.666l52.886-0.031l-85.632-106.201
			c-10.076-12.496-27.942-22.621-39.905-22.614L1126.656,950.216z"/>
	</g>
	<g>
		<path fill="#B75742" d="M334.292,1007.587l18.452-4.308c0,0,14.966,0.945,28.93-1.888c0,0,1.403,3.708,2.01,11.368
			c0.105,1.322-1.792,7.9-3.103,8.101c-4.748,0.73-13.107-0.097-27.936,0.244c0,0-23.346,2.758-35.84-1.365
			C304.313,1015.618,334.292,1007.587,334.292,1007.587z"/>
		<path fill="#184655" d="M538.137,705.583c1.025,10.71,10.015,14.486,18.394,21.263c5.625,4.548,4.658,16.839,0.358,24.472
			c-10.89,19.333-1.613,21.718,7.164,35.916c21.142,34.197-44.372,41.754-52.147,44.302c-7.775,2.547-13.047,5.633-17.646,5.123
			c-13.862-1.535-26.544-21.236-33.581-39.459c-7.036-18.223,10.048-19.185,10.92-29.651c0.872-10.467-19.121-12.715-13.192-32.483
			c6.414-21.385,15.464-39.512,27.488-46.013c19.893-10.756,44.076,0.493,49.574,9.134
			C537.109,700.763,537.913,703.246,538.137,705.583z"/>
		<path fill="#FAE0B2" d="M539.677,939.698c1.721,4.287,11.201,19.456,11.201,19.456l-133.043,1.322l-2.074-27.293
			c36.527-0.295,72.634-16.446,106.289-28.001C522.905,907.243,538.843,937.619,539.677,939.698z"/>
		<path fill="#50BFA5" d="M445.367,835.013c0,0,7.143-50.429,18.633-55.667c11.49-5.238,73.718,2.021,83.031,7.709
			c9.313,5.688-6.2,64.913-8.58,81.482c-0.142,0.991-0.295,1.981-0.457,2.967c-3.929,23.915-1.656,48.387,6.778,71.014
			c-34.049,10.339-42.882,16.025-79.396,15.007l-13.632-79.763C451.744,877.763,440.905,839.164,445.367,835.013z"/>
		<path fill="#F7A491" d="M513.419,746.156c0,0,2.862,27.765,5.314,34.575c2.452,6.811-6.57,20.664-21.287,24.499
			c-14.717,3.835-4.01-14.794-4.355-21.993c-0.346-7.198-1.771-41.273-1.771-41.273L513.419,746.156z"/>
		<path fill="#F47458" d="M513.764,749.347c-1.83,2.083-4.045,3.969-6.728,5.549c-5.559,3.277-10.654,4-15.047,2.988
			c-0.363-8.583-0.67-15.92-0.67-15.92l22.099,4.193C513.419,746.156,513.545,747.374,513.764,749.347z"/>
		<path fill="#F7A491" d="M508.264,695.444c0,0,8.688,2.295,13.798,10.771c5.11,8.476,7.945,32.987-10.276,43.727
			c-18.221,10.739-31.496-5.856-31.161-21.564C480.96,712.669,485.066,691.837,508.264,695.444z"/>
		<path fill="#F7A491" d="M475.096,721.796c0.2,4.08,2.284,7.288,4.654,7.167c2.37-0.121,4.13-3.527,3.93-7.607
			c-0.2-4.08-2.283-7.288-4.654-7.166C476.656,714.312,474.896,717.717,475.096,721.796z"/>
		<path fill="#F7A491" d="M521.562,728.047c-1.438,4.034-0.4,8.095,2.317,9.07c2.718,0.975,6.087-1.506,7.525-5.541
			c1.438-4.034,0.4-8.095-2.318-9.07C526.37,721.531,523,724.012,521.562,728.047z"/>
		<path fill="#3C8F7C" d="M547.031,787.055c0,0-10.61,5.567-17.116,21.096c-6.507,15.53,15.652,94.779,20.377,99.856
			s17.796,5.871,20.026-6.54C572.548,889.054,565.033,790.974,547.031,787.055z"/>
		<path fill="#9BC1F9" d="M483.57,776.444l18.294,109.866l-71.215,11.484l-22.606-102.774
			C408.043,795.021,466.632,771.298,483.57,776.444z"/>
		<path fill="#9BC1F9" d="M346.122,779.833c6.805-2.678,14.225-3.358,21.402-1.956c13.328,2.605,34.514,8.006,43.016,17.143
			c12.833,13.79,24.707,105.015,24.707,105.015l-55.358-12.411L346.122,779.833L346.122,779.833z"/>
		<path fill="#F7CC7F" d="M536.573,967.772c-9.308-25.855-114.796-119.967-142.719-112.728l14.996,57.398
			c0,0,31.341,93.436,62.052,105.488c30.711,12.052,59.467-1.551,59.467-1.551S545.88,993.626,536.573,967.772z"/>
		<path fill="#F7A491" d="M498.695,816.779c-1.312,2.626,7.074,7.315,9.511,9.09c2.438,1.776,12.55-0.052,12.55-0.052
			S500.156,813.854,498.695,816.779z"/>
		<path fill="#F48C7F" d="M408.572,939.783c0,0-26.806,55.703-26.895,61.503c-0.129,8.356-38.757,6.063-30.366,2.489
			c1.93-0.822,8.009-3.901,8.475-4.303c2.494-2.149,24.742-71.323,24.742-71.323L408.572,939.783z"/>
		<path fill="#F7CC7F" d="M417.122,873.142c-1.295-1.428-14.881-6.825-25.338,6.205c-10.457,13.03-30.509,114.451-30.509,114.451
			l24.648,2.413C385.924,996.212,447.278,906.406,417.122,873.142z"/>
		<path fill="#F47458" d="M337.384,797.093l31.71,92.45c1.272,3.708,4.437,6.373,8.203,6.906c29.728,4.206,45.24,6.343,45.24,6.343
			s5.801,0.302,11.951,0.381l68.054-7.263c5.92-0.632,10.052-6.368,8.947-12.421l-16.566-90.774
			c-1.023-5.608-6.178-9.348-11.62-8.434l-65.472,11.005c-5.787-0.156-11.422-0.308-17.208-0.464l-51.509-11.534
			C341.329,781.544,334.719,789.324,337.384,797.093z"/>
		<path fill="#F7A491" d="M475.894,842.06c0,0,18.263,3.385,24.502,3.198c6.239-0.188,14.327,1.783,14.327,1.783
			s20.386,47.938,23.311,53.285c8.732,15.964,32.939,14.082,32.539,0.767c-0.318-10.577-41.67-76.914-52.662-76.583
			c-10.992,0.331-45.408-6.846-46.44-2.473c-0.555,2.352,31.693,3.452,26.606,5.449c-3.16,1.24-28.401-1.596-28.311,1.374
			c0.089,2.971,22.8,3.252,25.249,5.557c2.448,2.305-24.172-2.822-24.02,2.221c0.076,2.539,23.448,0.706,26.008,4.559
			C498.068,842.801,473.96,837.064,475.894,842.06z"/>
		<g>
			<path fill="#F7A491" d="M352.729,834.236c-1.432-0.619-3.1,0.188-3.452,1.708c-0.36,1.556-0.436,3.431,0.718,4.671
				c2.291,2.461,18.267,4.82,18.352,2.444C368.413,841.233,357.693,836.383,352.729,834.236z"/>
			<path fill="#F7A491" d="M349.624,840.44c0,0-1.603,5.99-0.217,6.039c1.386,0.05,18.674,1.762,19.442-0.293
				C369.617,844.133,351.849,839.232,349.624,840.44z"/>
			<path fill="#F7A491" d="M348.877,846.622c0,0-0.492,2.66,0.94,4.198c1.432,1.538,17.529,0.531,18.116-2.026
				C368.521,846.238,349.443,844.66,348.877,846.622z"/>
			<path fill="#F7A491" d="M351.333,852.245c0,0-0.024,2.032,0.788,2.903c0.811,0.872,12.702-0.336,13.884-2.872
				C367.186,849.742,352.716,849.618,351.333,852.245z"/>
		</g>
		<path fill="#F7A491" d="M391.655,992.851c0,0-5.676,20.542-11.379,34.128c-3.732,8.891-4.692,17.757-7.163,22.197
			c-6.246,11.223-16.461,11.671-24.572,4.931c-8.112-6.741,2.768-35.181,2.768-35.181l25.609-36.03L391.655,992.851z"/>
		<path fill="#F47458" d="M373.113,1049.176c2.195-3.944,3.208-11.383,6.021-19.228c-3.917,2.273-10.49,3.986-14.063,3.031
			c-13.104-3.501-13.763-14.053-13.763-14.053s-13.658,29.149-5.547,35.89C353.874,1061.557,366.867,1060.399,373.113,1049.176z"/>
		<polygon fill="#B75742" points="417.84,795.285 438.808,903.813 426.189,903.055 422.537,902.793 400.632,794.826 		"/>
		<path fill="#FAE0B2" d="M490.884,1011.585c7.18,13.209,21.489,15.262,34.37,14.18c14.248-1.198,29.933-8.991,34.142-25.345
			c4.496-17.466-1.421-39.085-11.792-52.79c-53.089-70.149-53.502-77.063-74.635-86.381
			c-22.818-10.062-107.557,134.704-107.557,134.704l23.27,11.893c0,0,34.904-29.174,57.205-54.754
			c2.622-3.008,10.083-18.568,10.083-18.568S486.139,1002.854,490.884,1011.585z"/>
	</g>
	<g>
		<path fill="#F7CC7F" d="M491.668,589.672c-22.438,3.392-29.471,32.692-11.029,46.079c3.312,2.404,5.581,5.985,6.514,9.97
			l3.21,13.713c0.885,3.779,4.525,6.245,8.362,5.665l8.5-1.285c3.838-0.58,6.586-4.012,6.314-7.883
			c-0.993-14.128-2.382-19.265,2.287-25.5C529.485,612.193,514.111,586.279,491.668,589.672z"/>
		<g>
			<path fill="#FAE0B2" d="M496.568,654.387c-0.008,0.001-0.016,0.001-0.023,0.003c-1.13,0.158-2.173-0.63-2.331-1.759
				l-4.182-29.903l-7.004-6c-0.866-0.743-0.967-2.046-0.225-2.912c0.741-0.866,2.046-0.966,2.912-0.225l8.19,7.017l4.398,31.451
				C498.461,653.18,497.686,654.218,496.568,654.387z"/>
		</g>
		<g>
			<path fill="#FAE0B2" d="M506.973,654.09c0.008-0.002,0.016-0.002,0.023-0.004c1.126-0.183,1.89-1.244,1.707-2.37l-4.845-29.803
				l4.917-7.802c0.608-0.965,0.318-2.24-0.646-2.848c-0.964-0.609-2.24-0.319-2.848,0.646l-5.75,9.125l5.095,31.345
				C504.809,653.497,505.856,654.258,506.973,654.09z"/>
		</g>
		<path fill="#96D9C9" d="M487.058,645.382c0.029,0.113,0.068,0.224,0.095,0.339l3.21,13.713c0.885,3.779,4.524,6.245,8.362,5.665
			l8.5-1.285c3.838-0.58,6.586-4.012,6.314-7.883c-0.442-6.285-0.96-10.788-0.991-14.403L487.058,645.382z"/>
	</g>
	<path fill="#F47458" d="M487.443,371.34l-8.891-12.857l-15.631,0.035c-1.78,0.004-2.793-2.035-1.713-3.451l9.481-12.428
		l-4.864-14.855c-0.554-1.692,1.072-3.285,2.753-2.695l14.75,5.176l12.625-9.216c1.438-1.05,3.455,0.005,3.414,1.785l-0.365,15.627
		l12.667,9.16c1.442,1.043,1.063,3.288-0.643,3.798l-14.975,4.482l-4.797,14.877C490.707,372.472,488.455,372.804,487.443,371.34z"
		/>
	<path fill="#9BC1F9" d="M1310.687,394.639l-6.531-9.445l-11.483,0.025c-1.308,0.003-2.051-1.495-1.258-2.535l6.964-9.13
		l-3.572-10.913c-0.407-1.243,0.788-2.413,2.022-1.98l10.835,3.802l9.274-6.77c1.056-0.771,2.538,0.004,2.508,1.312l-0.268,11.479
		l9.305,6.729c1.059,0.766,0.78,2.415-0.473,2.79l-11,3.292l-3.524,10.928C1313.085,395.47,1311.43,395.714,1310.687,394.639z"/>
	<polygon fill="#F48C7F" points="1127.655,255.818 1113.218,253.39 1104.759,265.693 1088.768,261.826 1083.799,277.708 
		1065.522,274.133 1059.144,288.193 1040.996,287.628 1041.21,280.76 1054.779,281.182 1061.509,266.345 1079.079,269.782 
		1084.13,253.634 1101.776,257.901 1110.038,245.887 1123.419,248.137 1127.193,239.113 1133.534,241.764 	"/>
	<polygon fill="#50BFA5" points="717.787,300.572 707.215,303.816 700.115,287.382 684.073,290.219 676.748,278.79 670.962,282.497 
		680.757,297.784 695.961,295.095 703.347,312.192 719.256,307.309 	"/>
	<path fill="#F48C7F" d="M406.482,474.673l-15.824,9.627l16.413,73.734c1.418,6.371,8.677,9.463,14.253,6.07l0,0
		c3.512-2.137,5.258-6.286,4.33-10.291l-4.011-17.312l16.604-10.101l13.729,11.489c3.13,2.619,7.58,2.955,11.068,0.833l0.301-0.183
		c5.581-3.395,6.169-11.272,1.153-15.457L406.482,474.673z M417.186,519.1l-3.032-13.546l10.655,8.908L417.186,519.1z"/>
	<path fill="#F7CC7F" d="M1361.148,544.439c0.813-2.087,0.531-9.567,10.924-16.758c4.272-2.924,7.775-5.412,8.723-8.827
		c1.635-5.889-4.563-8.716-10.737-8.688c-3.194,0.015-5.804-2.545-5.906-5.738l0,0c-0.103-3.244,2.415-5.961,5.656-6.119
		c3.54-0.173,7.711,0.17,12.088,1.385c13.254,3.679,17.244,12.681,14.931,21.015c-2.118,7.63-8.232,11.34-13.218,14.499
		c-8.393,5.331-8.388,11.273-9.106,12.937L1361.148,544.439z M1354.691,557.569c1.478-5.321,6.252-8.105,11.473-6.656
		c5.422,1.505,7.877,6.296,6.5,11.645c-1.449,5.222-6.151,8.135-11.573,6.63C1355.769,567.71,1353.241,562.79,1354.691,557.569z"/>
	<g>
		<path fill="#F7CC7F" d="M918.434,160.929c-20.639,0-30.948,25.392-16.183,39.938c2.652,2.613,4.205,6.141,4.502,9.852
			l1.022,12.769c0.282,3.519,3.22,6.231,6.75,6.231h7.818c3.531,0,6.468-2.712,6.749-6.231c1.028-12.84,0.478-17.649,5.525-22.621
			C949.379,186.324,939.076,160.929,918.434,160.929z"/>
		<g>
			<path fill="#FAE0B2" d="M914.042,219.791c-0.007,0-0.014,0-0.021,0c-1.038-0.011-1.869-0.862-1.858-1.898l0.305-27.46
				l-5.483-6.348c-0.678-0.785-0.591-1.971,0.194-2.649c0.784-0.678,1.971-0.591,2.649,0.193l6.411,7.424l-0.321,28.88
				C915.907,218.964,915.07,219.791,914.042,219.791z"/>
		</g>
		<g>
			<path fill="#FAE0B2" d="M923.439,220.939c0.007,0,0.013,0,0.021,0c1.037-0.012,1.868-0.862,1.857-1.899l-0.305-27.459
				l5.483-6.348c0.677-0.785,0.591-1.971-0.194-2.649c-0.784-0.678-1.971-0.591-2.649,0.194l-6.412,7.424l0.321,28.88
				C921.572,220.112,922.411,220.939,923.439,220.939z"/>
		</g>
		<path fill="#96D9C9" d="M906.714,210.402c0.01,0.106,0.03,0.211,0.039,0.318l1.022,12.769c0.282,3.519,3.22,6.231,6.75,6.231
			h7.818c3.531,0,6.468-2.712,6.749-6.231c0.457-5.712,0.604-9.832,1.068-13.087H906.714z"/>
	</g>
	<polygon fill="#FAE0B2" points="958.146,125.971 940.307,156.22 970.556,133.728 	"/>
	<polygon fill="#FAE0B2" points="885.614,118.178 903.853,149.24 900.751,113.562 	"/>
	<polygon fill="#FAE0B2" points="853.899,162.648 882.912,174.059 853.296,175.834 	"/>
	<polygon fill="#FAE0B2" points="943.41,203.532 955.044,218.269 963.575,208.186 	"/>
	<polygon fill="#FAE0B2" points="955.044,176.386 981.415,165.527 982.19,177.162 	"/>
	<polygon fill="#FAE0B2" points="886.014,205.859 861.195,217.493 868.951,226.801 	"/>
	<path fill="#96D9C9" d="M591.532,362.926c4.057,0.329,11.992,1.975,19.283,4.058c8.922,2.55,14.143,4.976,18.049,9.102
		c3.823,3.687,5.824,9.032,4.151,14.884c-1.645,5.756-6.538,10.169-14.597,10.771l-0.055,0.192
		c6.812,4.126,10.689,11.253,8.304,19.599c-1.673,5.852-5.675,9.689-10.636,11.799c-5.77,2.398-14.24,2.261-27.095-1.414
		c-7.195-2.056-12.43-4.072-15.555-5.483L591.532,362.926z M598.943,391.817l4.797,1.371c7.675,2.193,12.705,0.207,14.075-4.59
		c1.398-4.893-1.603-8.552-8.222-10.444c-3.165-0.905-5.043-1.234-6.345-1.399L598.943,391.817z M590.745,420.501
		c1.384,0.603,3.111,1.096,5.605,1.809c6.62,1.892,13.184,1.07,15.131-5.741c1.865-6.524-3.247-10.786-10.538-12.87l-4.989-1.426
		L590.745,420.501z"/>
	<path fill="#F7CC7F" d="M1217.649,390.893c0.822,3.597-1.381,7.216-4.97,8.08c-3.349,0.806-7.607,1.439-12.502,1.604
		c-25.483,0.859-39.143-14.557-39.851-35.556c-0.848-25.155,16.616-39.759,38.928-40.512c4.427-0.149,8.325,0.18,11.477,0.728
		c3.792,0.66,6.254,4.367,5.425,8.125l-0.052,0.235c-0.777,3.525-4.188,5.85-7.743,5.216c-2.332-0.416-4.963-0.648-7.877-0.549
		c-13.233,0.446-23.245,8.777-22.692,25.182c0.499,14.765,9.562,23.767,24.436,23.265c2.475-0.083,5.073-0.436,7.46-0.942
		C1213.287,385.006,1216.828,387.304,1217.649,390.893L1217.649,390.893z"/>
	<path fill="#466EB6" d="M391.188,733.997c-1.777-5.281,1.188-11.212,6.48-12.959c5.506-1.817,10.525,0.882,12.618,6.369
		c1.989,5.522-0.236,11.004-5.97,13.069C398.493,742.573,393.103,739.69,391.188,733.997z M389.388,718.017l-17.16-40.992
		c-1.42-3.392,0.291-7.281,3.75-8.527l4.179-1.505c3.454-1.244,7.247,0.653,8.322,4.164l13.015,42.5L389.388,718.017z"/>
	<g>
		<g>
			<path fill="#F48C7F" d="M1171.011,680.82c0,0,44.228,19.273,48.131,20.129c2.446,0.536,30.557-28.597,45.881-39.976
				c0.712-0.529,3.432-4.404,4.195-4.787c9.119-4.58-6.297,21.805-6.297,21.805s-32.609,41.467-39.986,45.021
				c-9.266,4.462-55.058-18.178-54.783-19.484L1171.011,680.82z"/>
			<path fill="#184655" d="M1163.996,639.423c1.904-13.032,10.95-40.776,2.605-51.87c-11.735-15.599-36.53-14.924-48.246,0.065
				c-5.369,6.871-8.275,15.295-11.107,23.542c-1.828,5.324-3.674,10.679-6.251,15.696c-2.303,4.483-4.938,10.087-9.319,12.816
				c-19.472,12.126-41.278,19.939-42.681,47.26c-1.665,32.401,33.829,72.936,77.414,53.315
				c16.685-7.511,38.541-31.804,45.677-48.607c3.216-7.576,1.677-6.781-0.098-18.325
				C1170.399,662.98,1162.464,649.919,1163.996,639.423z"/>
			<path fill="#355389" d="M1140.285,658.805l59.208,32.577l-13.962,21.201c0,0-44.579-16.99-53.593-19.422
				C1122.926,690.729,1130.025,657.918,1140.285,658.805z"/>
			<path fill="#F7A491" d="M1139.269,630.539c0,0-1.54,22.548-2.689,28.869c-1.188,6.531-1.911,33.727,11.674,37.047
				c13.583,3.321,8.484-33.504,8.708-40.107c0.225-6.602,1.552-28.052,1.552-28.052L1139.269,630.539z"/>
			<path fill="#F47458" d="M1139.078,633.243c1.021,1.518,2.246,2.977,3.702,4.35c5.004,4.72,10.154,6.253,14.848,5.639
				c0.425-7.476,0.886-14.936,0.886-14.936l-19.244,2.243C1139.269,630.539,1139.199,631.566,1139.078,633.243z"/>
			<path fill="#F7A491" d="M1153.306,587.383c0,0-8.259,0.268-14.576,6.791c-6.318,6.523-13.879,27.842,0.257,41.178
				c14.136,13.336,28.113,1.876,31.031-12.228C1172.937,609.021,1174.843,588.924,1153.306,587.383z"/>
			<path fill="#184655" d="M1161.056,588.048c0,0-8.618,22.236-28.97,20.355c-9.22-0.851-11.308,11.74-11.308,11.74
				s7.543-29.893,17.009-34.335S1161.056,588.048,1161.056,588.048z"/>
			
				<ellipse transform="matrix(0.993 -0.1179 0.1179 0.993 -64.5319 137.4559)" fill="#F7A491" cx="1129.934" cy="614.35" rx="4.807" ry="7.111"/>
			<path fill="#B75742" d="M1285.984,621.091l-50.124,102.417c-1.197,2.445-0.826,5.281,0.816,6.243l36.616,21.444l45.771-90.76
				c0,0-19.939-29.839-27.422-41.029C1290.257,617.337,1287.406,618.186,1285.984,621.091z"/>
			<path fill="#FAE0B2" d="M1242.294,720.144l43.615-89.117c1.421-2.905,4.273-3.756,5.656-1.686
				c6.076,9.089,15.261,22.832,21.861,32.707l-41.082,81.461l-29.234-17.121C1241.468,725.426,1241.097,722.59,1242.294,720.144z"/>
			<path fill="#F48C7F" d="M1266.118,654.229c0.516-0.897,2.89-2.847,3.891-3.113c2.117-0.563,4.673-0.48,5.094,0.882
				c0.611,1.981-5.639,4.177-5.639,4.177l-3.402,4.93C1266.062,661.105,1264.476,657.081,1266.118,654.229z"/>
			<path fill="#F7A491" d="M1137.55,653.326c0,0,15.434,12.749,19.864,17.178c4.396,4.395,12.088,9.76,12.088,9.76l-12.475-17.258
				l-7.905-7.377L1137.55,653.326z"/>
			<path fill="#F48C7F" d="M1329.113,857.63c-2.395-1.995-4.583-7.681-5.457-10.176c-5.188-26.844-29.711-99.449-56.423-99.449
				c-23.27,0-95.146,56.364-128.757,88.941c-9.707,9.407-9.052,1.425-3.103,3.62c3.554,1.31,27.55,41.227,31.391,41.403
				c11.736,0.536,22.588-7.322,32.385-12.79c14.935-8.336,25.319-17.846,33.997-30.802c21.982-32.817,30.222-52.13,36.845-64.689
				c0,0,6.246,25.831,9.308,32.06c6.917,14.067,27.593,48.721,35.679,62.224l31.716-0.862
				C1346.695,867.11,1332.215,860.214,1329.113,857.63z"/>
			<path fill="#F7A491" d="M1269.302,763c0,0-106.522,49.641-113.245,66.705c-6.722,17.064-1.551,42.403,13.962,47.573
				c15.513,5.171,111.693-77.048,111.693-77.048s12.41,22.753,29.992,38.265c9.373,8.269,25.217,15.015,34.258,21.072
				c7.919,5.306,9.695,10.472,9.695,10.472l22.236,1.034c0,0-3.748-1.283-10.472-10.342
				C1344.716,830.138,1292.043,759.01,1269.302,763z"/>
			<path fill="#13375B" d="M1228.192,756.795c0,0,34.215,36.886,40.938,85.493c0,0-53.607,23.097-79.979,37.059
				c-26.372,13.962-55.846-0.517-65.155-16.03c-9.308-15.513,0-59.208,0-59.208l54.813-8.532L1228.192,756.795z"/>
			<path fill="#355389" d="M1309.377,858.75c-2.726-1.039-3.68,12.752-4.128,15.829c-0.504,3.463,1.148,5.806,1.567,6.094
				c1.13,0.78,45.057,1.648,53.457-0.605c0.567-0.152,1.755-0.866,1.964-1.049c6.17-5.381-22.372-19.656-28.125-18.459
				C1328.995,861.623,1321.639,863.423,1309.377,858.75z"/>
			<path fill="#466EB6" d="M1136.666,659.322c0,0-8.356-0.078-17.292,19.174c-10.983,23.66,4.688,113.945,3.551,126.828
				c0,0,3.873,4.452,26.42,7.709c19.98,2.886,31.275-11.379,31.275-11.379s-5.085-34.861,2.618-67.656
				c4.174-17.769,6.374-35-10.116-50.975C1156.632,667.047,1136.666,659.322,1136.666,659.322z"/>
			<path fill="#466EB6" d="M1346.253,859.603c-2.726-1.039-5.074,12.246-4.873,15.493c0.218,3.492,1.104,6.031,1.522,6.32
				c1.13,0.78,45.102,1.421,53.502-0.831c0.568-0.153,1.755-0.867,1.965-1.049c6.169-5.381-25.571-18.848-31.324-17.652
				C1361.928,862.948,1358.516,864.277,1346.253,859.603z"/>
			<path fill="#F47458" d="M1316.852,616.847l-83.081,120.973c-1.914,2.787-1.461,6.182,0.946,7.079l56.186,20.943l66.453-95.259
				l-33.155-54.938C1322.707,613.168,1318.958,613.781,1316.852,616.847z"/>
			<path fill="#F7A491" d="M1297.103,708.567c-1.067-2.06-9.697,2.518-9.697,2.518s-7.679,1.333-8.223,1.047
				c-0.615-0.324,5.159-0.806,5.159-0.806s9.433-3.223,9.328-4.282c-0.433-4.353-6.341,1.065-10.971,1.263
				c-3.536,0.151-7.375-0.004-10.781-0.487c-1.357-0.763,2.101-2.476,2.101-2.476s4.539-2.04,3.813-3.232
				c-1.762-2.897-12.375,2.61-14.608,4.654c-1.498,1.37-3.365,4.03-5.971,5.503c-11.336,6.412-24.921,17.414-40.956,25.135
				c-5.311-4.46-56.542-50.444-57.829-51.561l-27.983,22.039c0.038,0.027,80.272,61.135,84.731,60.99
				c5.605-0.183,39.016-35.448,48.06-43.852c1.368-1.271,9.958-2.228,12.318-1.898c5.25,0.734,15.091-3.387,15.091-3.387
				c3.032-3.205-11.176,0.033-9.829-0.801c0.595-0.369,4.068-0.723,7.525-1.217c3.521-0.504,6.709-2.518,7.138-3.483
				c0.839-1.882-7.915,0.82-7.915,0.82l-7.297,0.45l6.983-1.423C1287.291,714.08,1298.144,710.575,1297.103,708.567z"/>
			<path fill="#86B1F2" d="M1150.601,671.859c-9.047-9.258-26.442-7.911-31.517,5.303c-1.411,3.675-1.35,14.22,0.259,18.098
				c6.435,15.512,43.953,40.851,43.953,40.851l20.683-28.182L1150.601,671.859z"/>
		</g>
	</g>
	<g>
		<path fill="#F7A491" d="M778.817,402.316c0-1.188,1.463-8.852,1.463-8.852s-3.41-10.869-3.758-10.894
			c-7.019-0.504-12.315,4.267-11.128,10.682l0.066,0.212c3.636,11.598,13.412,20.214,25.376,22.36
			c2.728,0.49,5.615,1.002,8.572,1.52c-1.392-4.658-2.248-9.416-2.202-14.305C786.95,402.958,778.817,402.756,778.817,402.316z"/>
		<path fill="#355389" d="M897.507,354.363c-0.194-0.582-61.707,39.429-61.707,39.429s-26.255,0.258-45.65,0.091
			c-0.052,5.858,0.897,11.558,2.438,17.138c19.164,3.628,41.001,7.457,45.969,7.075c9.255-0.712,55.674-23.873,55.674-23.873
			S897.652,354.796,897.507,354.363z"/>
		<path fill="#466EB6" d="M898.197,503.761c-0.127-1.004-13.123-45.575-14.479-85.493c-1.051-30.956,8.531-58.705,13.445-63.776
			c1.814-1.894,18.702-5.947,18.702-5.947l-6.148,10.206c-6.25,11.797-7.945,22.244-10.657,35.557
			c-7.866,38.605,27.477,115.849,25.683,116.347C922.736,511.212,898.698,507.715,898.197,503.761z"/>
		<polygon fill="#9BC1F9" points="763.387,347.96 752.591,355.009 784.872,409.335 795.014,365.222 		"/>
		<polygon fill="#9BC1F9" points="770.061,339.416 783.627,384.508 794.497,365.028 		"/>
		<polygon fill="#9BC1F9" points="859.667,334.211 870.101,372.073 793.204,365.092 		"/>
		<path fill="#F7A491" d="M815.806,494.399c0,0-32.68,39.924-32.77,45.724c-0.129,8.355-38.756,6.062-30.366,2.489
			c1.93-0.822,8.009-3.901,8.475-4.302c2.495-2.149,28.242-52.547,28.242-52.547L815.806,494.399z"/>
		<path fill="#07345A" d="M735.652,546.424l24.843-7.729c0,0,8.574,4.367,22.539,1.533c0,0,3.644,5.852,4.251,13.512
			c0.105,1.322,0.757,5.24-0.554,5.441c-4.747,0.73-17.897,0.421-32.726,0.761c0,0-19.979,0.233-32.473-3.889
			C709.039,551.928,735.652,546.424,735.652,546.424z"/>
		<path fill="#B75742" d="M974.038,503.934c0,0-29.403-6.718-56.881-26.372c-31.795-22.742-67.568-46.398-81.702-44.471
			c-11.376,1.551-77.565,92.561-77.565,92.561l32.06,13.962l57.915-59.466c0,0,59.161,60.991,78.599,65.154
			C970.734,554.784,984.88,522.14,974.038,503.934z"/>
		<path fill="#F7CC7F" d="M751.077,355.018l44.586,94.457c0.202,0.429,0.591,0.742,1.053,0.849l29.779,8.28l-38.055-93.575
			l-35.456-12.142C751.686,352.443,750.491,353.777,751.077,355.018z"/>
		<path fill="#07345A" d="M902.815,265.779c0,0,8.238-11.231,17.432-0.004c0,0,5.471-4.054,10.353,1.313
			c0,0,10.239-4.553,14.841,11.035c0,0,5.346-1.728,6.896,4.692c1.549,6.42-1.208,11.18-1.208,11.18s3.37,1.917,2.731,8.081
			c-0.543,5.241-4.656,6.55-4.656,6.55s-0.049,8.722-3.442,11.778c-3.393,3.056-8.615,2.457-8.615,2.457s-0.754,4.821-5.148,4.958
			c-4.393,0.137-10.292-3.316-14.913-0.84c-4.622,2.476-17.48,2.111-17.48,2.111s-14.959-4.509-12.556-19.516
			c0,0-8.293-5.775-2.804-14.662c0,0-6.353-12.006,2.109-20.64C894.816,265.638,902.815,265.779,902.815,265.779z"/>
		<path fill="#F7A491" d="M857.432,621.315c0,0,1.81,49.125,2.932,57.444c1.116,8.281-20.847,33.23-18.041,24.552
			c0.646-1.996,2.309-8.604,2.312-9.219c0.014-3.293-8.145-59.333-8.145-59.333L857.432,621.315z"/>
		<path fill="#07345A" d="M834.036,718.658l10.462-23.822c0,0,8.921-3.607,15.942-16.006c0,0,6.807,1.088,12.987,5.655
			c1.066,0.788,4.452,2.865,3.744,3.987c-2.563,4.062-11.422,13.784-20.893,25.201c0,0-12.93,15.233-24.237,21.958
			C820.735,742.355,834.036,718.658,834.036,718.658z"/>
		<path fill="#F47458" d="M835.973,672.508c2.293-2.332-23.246-128.004-10.859-140.134c12.387-12.129,95.146-29.992,95.146-29.992
			l10.859-38.265c0,0,34.604,10.146,48.608,31.026c7.658,11.419-0.171,37.458-1.551,40.333
			c-11.82,24.613-41.023,25.855-62.269,25.637c-19.546-0.201-54.252-0.471-54.252-0.471l-0.086,111.091c0,0-8.532,2.068-15.254,1.81
			C837.12,673.189,835.973,672.508,835.973,672.508z"/>
		<path fill="#FFFFFF" d="M912.69,351.234l22.412-8.053c0,0,0.676,0.036,0.882,0.01c2.405-0.305,28.851,86.227,37.481,118.961
			c8.63,32.733-2.674,26.525-2.674,26.525s-19.771,12.32-42.775,13.188c-23.92,0.902-19.133-27.923-19.133-27.923
			s-12.594-60.183-11.117-80.667C899.242,372.79,912.69,351.234,912.69,351.234z"/>
		<path fill="#F7A491" d="M913.048,333.637l-0.087,11.03l-0.015,1.958c0,0-1.524,18.886,3.886,21.804
			c5.41,2.918,18.258-25.245,18.258-25.245l-5.817-32.039L913.048,333.637z"/>
		<path fill="#F47458" d="M931.154,321.562c-2.698,11.556-11.597,19.577-18.191,23.087l0.087-11.011l16.224-22.492L931.154,321.562z
			"/>
		<path fill="#F7A491" d="M913.502,278.605c-10.506-2.189-20.389,5.859-20.609,16.43c-0.096,4.595,0.019,10.343,0.692,16.559
			c1.62,14.949,11.181,28.485,17.953,27.627c6.772-0.858,24.267-12.886,22.259-34.146
			C932.558,291.949,924.527,280.902,913.502,278.605z"/>
		
			<ellipse transform="matrix(-0.9921 0.1258 -0.1258 -0.9921 1898.948 493.636)" fill="#F7A491" cx="933.891" cy="306.764" rx="4.91" ry="6.005"/>
		<path fill="#07345A" d="M883.22,274.903c-6.293,6.428-7.677,15.16-3.091,19.502c4.586,4.342,13.405,2.65,19.698-3.779
			c6.293-6.428,7.677-15.16,3.091-19.502C898.332,266.783,889.512,268.474,883.22,274.903z"/>
		
			<ellipse transform="matrix(-0.9921 0.1258 -0.1258 -0.9921 1844.6956 436.1601)" fill="#07345A" cx="908.581" cy="276.305" rx="6.547" ry="4.396"/>
		
			<ellipse transform="matrix(-0.9921 0.1257 -0.1257 -0.9921 1811.6294 480.4883)" fill="#07345A" cx="890.653" cy="297.41" rx="5.589" ry="5.652"/>
		<path fill="#466EB6" d="M935.089,343.183c0,0,21.936-3.561,29.309-0.423c4.688,1.995,10.656,41.772,10.656,41.772
			s0.242,40.231,2.983,51.575c9.296,38.456,22.279,72.133,20.822,74.032c-9.539,7.844-49.452,15.113-52.485,11.376
			C912.883,480.25,935.089,343.183,935.089,343.183z"/>
		<path fill="#F7A491" d="M971.711,383.966c0,0-21.969,67.903-31.58,75.022c-9.611,7.12-52.836-59.509-52.836-59.509
			s-19.133-10.859-20.494-10.973c-5.426-0.453,11.315-3.248,11.315-3.248l2.069-17.323c0,0,0.819,0.126,5.817,5.753
			c6.758,7.608,12.627,19.407,15.384,21.395l28.958,21.977l14.737-47.056L971.711,383.966z"/>
		<polygon fill="#FAE0B2" points="788.44,365.03 797.535,364.144 836.51,461.14 826.492,458.601 		"/>
		<path fill="#F7CC7F" d="M875.119,341.394l23.456,114.199c0.388,1.886-1.018,3.666-2.943,3.725l-59.121,1.825l-38.976-96.995
			l73.543-25.066C872.846,338.479,874.743,339.564,875.119,341.394z"/>
		<path fill="#86B1F2" d="M898.93,390.947l-7.498,16.418c0,0,36.843,60.63,48.219,57.269c11.376-3.361,32.835-69.033,36.197-87.131
			c3.361-18.098-3.62-33.094-12.927-35.421c-9.308-2.327-16.547,13.445-19.392,20.167c-2.844,6.722-13.185,54.813-13.185,54.813
			L898.93,390.947z"/>
		<g>
			<path fill="#F7A491" d="M767.942,391.853c0,0-1.381-2.427-1.824-3.906c-0.443-1.48,8.626-6.626,12.216-4.28
				C781.923,386.011,772.336,389.583,767.942,391.853z"/>
		</g>
		<g>
			<path fill="#F7A491" d="M768.32,397.785c0,0-2.276-2.391-2.719-3.871c-0.443-1.48,11.626-7.553,15.215-5.208
				C784.405,391.052,772.714,395.515,768.32,397.785z"/>
		</g>
		<g>
			<path fill="#F7A491" d="M772.457,401.922c0,0-2.276-2.391-2.719-3.871c-0.443-1.481,8.627-6.626,12.216-4.28
				C785.542,396.117,776.851,399.652,772.457,401.922z"/>
		</g>
		<path fill="#F7A491" d="M882.124,374.659h-1.884c-0.894,0-1.782-0.095-2.655-0.285c-3.48-0.76-12.994-2.647-13.733-0.748
			c-0.905,2.327,13.703,5.042,13.703,5.042s-16.03-2.069-16.03,0.646c0,2.715,16.289,4.137,16.289,4.137s-14.22-0.517-14.479,1.034
			c-0.258,1.551,17.452,5.947,17.452,5.947s-14.349-3.103-15.772-1.293c-1.422,1.81,22.494,10.536,22.494,10.536L882.124,374.659z"
			/>
		<path fill="#F7A491" d="M772.457,401.922c0,0,7.842-4.425,9.91-3.045c2.068,1.379-6.722,8.015-6.722,8.015l1.055,2.424
			C776.7,409.315,771.079,404.967,772.457,401.922z"/>
	</g>
</g>
</svg>
