<?xml version="1.0" encoding="utf-8"?>
<!-- Generator: Adobe Illustrator 17.0.0, SVG Export Plug-In . SVG Version: 6.00 Build 0)  -->
<!DOCTYPE svg PUBLIC "-//W3C//DTD SVG 1.1//EN" "http://www.w3.org/Graphics/SVG/1.1/DTD/svg11.dtd">
<svg version="1.1" id="Calque_1" xmlns="http://www.w3.org/2000/svg" xmlns:xlink="http://www.w3.org/1999/xlink" x="0px" y="0px"
	 width="77px" height="28px" viewBox="0 0 77 28" enable-background="new 0 0 77 28" xml:space="preserve">
<path fill="#032476" d="M37.262,20.243c-0.015-0.014-3.503-3.472-9.258-3.474c-0.633,0-1.294,0.042-1.978,0.136
	c-0.095,0.013-0.161,0.103-0.148,0.198c0.013,0.097,0.101,0.165,0.194,0.152c0.669-0.093,1.314-0.133,1.932-0.135
	c2.807,0,5.065,0.846,6.62,1.692c1.556,0.846,2.396,1.685,2.4,1.683c0.033,0.033,0.076,0.05,0.119,0.05
	c0.045,0,0.09-0.018,0.123-0.054c0.066-0.069,0.065-0.181-0.003-0.249L37.262,20.243L37.262,20.243z M35.73,21.176
	c-0.016-0.016-3.02-3.129-8.223-3.131c-0.626,0-1.284,0.044-1.971,0.146c-0.095,0.014-0.16,0.105-0.145,0.2
	c0.014,0.097,0.102,0.164,0.195,0.15c0.67-0.102,1.311-0.144,1.922-0.144c2.532,0,4.528,0.759,5.893,1.518
	c1.364,0.757,2.082,1.51,2.085,1.507c0.033,0.035,0.078,0.053,0.123,0.053c0.043,0,0.087-0.016,0.12-0.05
	c0.068-0.068,0.068-0.18,0.003-0.249L35.73,21.176L35.73,21.176z M55.036,25.552H41.779c-0.095,0-0.171,0.078-0.171,0.176
	c0,0.097,0.076,0.176,0.171,0.176h13.257c0.095,0,0.174-0.079,0.174-0.176C55.21,25.63,55.131,25.552,55.036,25.552z M60.563,26.295
	H60.02c-0.018-0.047-0.044-0.09-0.083-0.127l-0.91-0.855c-0.031-0.13-0.132-0.238-0.27-0.263c-0.004,0-0.009-0.001-0.013-0.002
	l-2.95-2.77c1.223,0.171,1.992,0.319,1.996,0.318c0.169,0.032,0.337-0.069,0.391-0.236c0.053-0.17-0.024-0.353-0.178-0.428
	l-5.83-2.866l-0.071-0.026c-1.498-0.352-4.193-0.657-5.658-0.807l8.158-5.179c0.122-0.079,0.184-0.227,0.156-0.372
	c-0.03-0.144-0.145-0.255-0.287-0.275l-5.51-0.819l-0.209,0.036l-3.871,2.078l3.84-6.076c0.076-0.121,0.074-0.277-0.007-0.393
	c-0.08-0.117-0.221-0.174-0.358-0.141l-2.795,0.654l-0.128,0.06c-4.182,3.185-6.295,9.273-7.022,11.766
	c-0.895-1.874-2.962-2.903-5.061-3.483c-2.505-0.689-5.142-0.768-6.264-0.768c-0.35,0-0.551,0.007-0.554,0.007l-0.15,0.043
	l-6.53,3.627c-0.139,0.077-0.209,0.239-0.17,0.396c0.039,0.156,0.176,0.265,0.334,0.265h0.213l-0.642,1.156
	c-0.06,0.108-0.06,0.241,0.001,0.349c0.06,0.108,0.171,0.174,0.292,0.176c0.552,0.009,1.086,0.023,1.607,0.04l-4.601,4.36
	c-0.004,0.004-0.006,0.009-0.01,0.014h-0.436c-0.189,0-0.344,0.157-0.344,0.353c0,0.194,0.154,0.352,0.344,0.352h19.402l0.426,0.436
	c0.01,0.011,0.025,0.016,0.037,0.026c0.013,0.01,0.025,0.018,0.04,0.027c0.05,0.03,0.105,0.05,0.163,0.051c0,0,0.001,0,0.002,0
	c0,0,0,0,0,0h24.056c0.189,0,0.344-0.158,0.344-0.352C60.907,26.452,60.752,26.295,60.563,26.295z M51.904,19.718l3.713,1.823
	c-1.655-0.222-4.019-0.463-6.476-0.463c-2.853,0.01-5.875,0.316-8.044,1.436c0.055-0.062,0.108-0.122,0.165-0.184
	c1.326-1.457,2.997-3.02,4.188-3.487C46.054,18.898,50.015,19.278,51.904,19.718z M48.969,12.302l4.467,0.663l-8.203,5.208
	c-1.824,0.727-4.151,3.24-5.584,4.939c0.607-1.643,1.516-3.407,2.397-4.919c0.82-1.411,1.602-2.599,2.068-3.286L48.969,12.302z
	 M40.406,16.039c1.125-2.626,2.888-5.716,5.373-7.621l1.901-0.446l-4.093,6.475c-0.001,0.002,0,0.005-0.001,0.008
	c-0.989,1.451-3.514,5.317-4.701,8.752l-0.094-2.326l-0.003-0.09C38.867,20.461,39.368,18.458,40.406,16.039z M20.468,20.647
	l0.542-0.977c0.257-0.006,0.514-0.01,0.764-0.01c5.762,0,9.913,1.399,12.624,2.789c0.294,0.151,0.563,0.301,0.824,0.449
	C32.552,21.84,28.039,20.814,20.468,20.647z M22.313,21.556c0.041-0.038,0.067-0.087,0.085-0.136
	c4.216,0.188,7.346,0.659,9.655,1.225c-1.073-0.156-2.304-0.254-3.721-0.253c-2.135,0-4.687,0.22-7.715,0.77L22.313,21.556z
	 M36.59,26.233l-0.365-0.373c-0.064-0.066-0.152-0.103-0.242-0.103H17.88l1.812-1.717c0.022,0,0.044,0.005,0.066,0
	c3.433-0.683,6.26-0.943,8.574-0.943c3.795,0,6.209,0.698,7.663,1.382c0.728,0.341,1.216,0.678,1.521,0.927
	c0.167,0.136,0.268,0.237,0.329,0.302L36.59,26.233z M21.773,18.955c-0.137,0-0.278,0.004-0.417,0.006l5.276-2.93
	c0.085-0.002,0.238-0.006,0.449-0.006c1.088,0,3.684,0.083,6.086,0.744c2.407,0.663,4.527,1.885,4.932,4.028l0.117,3.325
	C36.499,22.654,31.231,18.954,21.773,18.955z M38.263,26.294l0.484-0.202c0.02-0.01,0.02-0.011,0.051-0.02
	c0.031-0.008,0.079-0.018,0.134-0.018c0.046,0.005,0.098,0.01,0.156,0.03c0.018,0.037,0.043,0.073,0.075,0.103
	c0.05,0.046,0.11,0.069,0.172,0.081c0.008,0.009,0.015,0.017,0.024,0.028L38.263,26.294L38.263,26.294z M49.141,21.783
	c1.999,0,3.937,0.163,5.472,0.344l1.63,1.531c-3.199-1.109-5.928-1.518-8.21-1.517c-4.622-0.001-7.392,1.676-8.522,2.551
	C41.103,22.467,45.175,21.766,49.141,21.783z M57.221,24.768c-4.087-0.718-7.288-0.983-9.777-0.983
	c-3.627,0-5.757,0.557-6.953,1.069c1.287-0.842,3.745-2.008,7.542-2.01C50.51,22.843,53.56,23.348,57.221,24.768z M40.162,26.295
	c-0.062-0.14-0.132-0.265-0.21-0.37c0.694-0.46,2.721-1.435,7.493-1.435c2.7,0,6.281,0.315,10.979,1.214l0.63,0.592L40.162,26.295z
	 M34.492,24.7H21.234c-0.095,0-0.171,0.078-0.171,0.175c0,0.097,0.076,0.177,0.171,0.177h13.257c0.095,0,0.172-0.08,0.172-0.177
	C34.664,24.778,34.586,24.7,34.492,24.7z"/>
<g>
	<path fill="#003889" d="M36.363,10.862c-0.105,0.23-0.253,0.383-0.441,0.456c-0.288,0.112-0.83-0.048-1.625-0.482
		c-0.305-0.165-0.527-0.389-0.667-0.674l-0.423,1.696c-0.172,0.687-0.382,1.224-0.628,1.614c-0.323,0.506-0.762,0.869-1.316,1.086
		c-0.7,0.273-1.401,0.256-2.103-0.055c-0.277-0.112-0.678-0.294-1.2-0.548c-0.326-0.191-0.639-0.481-0.938-0.871
		c-0.272-0.358-0.484-0.73-0.635-1.116c-0.1-0.254-0.148-0.587-0.146-1.001c0.004-0.393,0.053-0.734,0.146-1.022
		c0.141-0.425,0.371-0.827,0.689-1.202c0.341-0.406,0.706-0.685,1.094-0.837c0.352-0.137,0.673-0.165,0.963-0.083
		c0.138,0.041,0.432,0.183,0.88,0.427c0.059-0.083,0.166-0.304,0.322-0.666c0.292-0.667,0.436-1.325,0.433-1.978
		c-0.008-0.368-0.016-0.734-0.027-1.102c0.011-0.392,0.088-0.75,0.23-1.075l0.058-0.028c0.163,0.059,0.48,0.215,0.953,0.466
		c-0.008-0.01,0.056,0.156,0.19,0.501c0.064,0.165,0.167,0.344,0.309,0.536c0.155,0.208,0.299,0.351,0.435,0.428
		c0.038,0.097,0.027,0.2-0.033,0.307c-0.261-0.139-0.491-0.201-0.691-0.186c0.063,0.832,0.052,1.453-0.033,1.863
		c-0.106,0.524-0.377,1.089-0.811,1.695l0.115,0.081l0.019,0.034c-0.006,0.083-0.032,0.148-0.076,0.197l-0.229-0.104
		C30.8,9.585,30.448,9.844,30.128,10c-0.225-0.065-0.593-0.209-1.105-0.428c-0.017-0.025-0.031-0.053-0.043-0.083
		c-0.012-0.029,0.148-0.212,0.478-0.548l0.003-0.048l-0.055,0.021c-0.291,0.114-0.596,0.378-0.913,0.792
		c-0.679,0.883-0.862,1.726-0.549,2.526c0.2,0.513,0.47,0.867,0.809,1.063c0.429,0.045,0.839-0.008,1.227-0.16
		c0.482-0.188,0.934-0.656,1.354-1.404c0.341-0.604,0.591-1.365,0.75-2.28c0.146-0.826,0.408-1.313,0.788-1.461l0.082-0.021
		c0.203,0.057,0.436,0.147,0.696,0.268l0.41,0.191c0.123,0.057,0.386,0.479,0.788,1.265c0.034-0.037,0.086-0.137,0.156-0.297
		l0.071,0.182c-0.089,0.283-0.23,0.464-0.424,0.539c-0.098,0.038-0.179,0.039-0.246,0.002c-0.01-0.008-0.076-0.062-0.2-0.164
		c-0.197-0.165-0.374-0.394-0.531-0.689c-0.126-0.261-0.255-0.522-0.384-0.783c-0.141-0.262-0.265-0.374-0.371-0.332
		c-0.23,0.09-0.415,0.366-0.554,0.825c-0.123,0.481-0.244,0.964-0.363,1.446c-0.148,0.579-0.321,1.044-0.52,1.394
		c-0.443,0.782-0.954,1.286-1.533,1.512c-0.691,0.271-1.323,0.26-1.895-0.031c-0.548-0.275-0.96-0.764-1.234-1.468
		c-0.344-0.879-0.092-1.828,0.754-2.848c0.304-0.367,0.611-0.611,0.92-0.732c0.161-0.063,0.278-0.098,0.352-0.106
		c0.138-0.016,0.5,0.126,1.089,0.424c-0.059,0.11-0.146,0.23-0.264,0.36c-0.163,0.182-0.259,0.292-0.29,0.333
		c0.302-0.16,0.58-0.388,0.833-0.687c0.111,0.08,0.271,0.198,0.481,0.357l-0.069,0.054c-0.114-0.095-0.267-0.214-0.458-0.356
		c0.522-0.721,0.83-1.436,0.924-2.143c0.052-0.405,0.034-1.187-0.053-2.35l0.164-0.038c0.126,0.325,0.476,0.749,1.046,1.271
		c-0.583-0.633-0.959-1.168-1.13-1.605c-0.022-0.057-0.038-0.147-0.047-0.27c-0.1,0.382-0.146,0.866-0.14,1.455
		c0.005,0.81-0.037,1.421-0.126,1.838c-0.121,0.55-0.377,1.109-0.77,1.679c-0.384-0.241-0.668-0.387-0.853-0.438
		c-0.285-0.078-0.6-0.049-0.941,0.084c-0.428,0.167-0.831,0.511-1.207,1.033c-0.309,0.428-0.504,0.903-0.586,1.425
		c-0.086,0.54-0.036,1.048,0.149,1.524c0.07,0.18,0.266,0.487,0.587,0.926c0.379,0.515,0.834,0.859,1.363,1.034
		c0.551,0.183,1.119,0.161,1.704-0.068c0.667-0.261,1.175-0.802,1.526-1.624c0.161-0.374,0.358-1.087,0.59-2.139
		c0.168-0.75,0.359-1.168,0.575-1.252c0.151-0.06,0.304,0.049,0.458,0.324c0.15,0.288,0.3,0.577,0.449,0.869
		c0.214,0.342,0.457,0.538,0.728,0.586c0.146,0.027,0.267,0.022,0.361-0.015c0.079-0.031,0.214-0.187,0.405-0.468L36.363,10.862z
		 M29.944,10.35c0.032,0.081,0.003,0.205-0.088,0.37s-0.13,0.265-0.118,0.297c0.084,0.035,0.168,0.066,0.253,0.095
		c0.087,0.043,0.145,0.107,0.173,0.19l0.057,0.156c0.076,0.212-0.047,0.512-0.367,0.899c-0.294,0.356-0.56,0.58-0.796,0.672
		l-0.498-0.293c0.187-0.266,0.465-0.658,0.836-1.177c-0.187-0.074-0.291-0.116-0.313-0.129c-0.095-0.057-0.166-0.144-0.21-0.259
		c-0.051-0.13-0.026-0.32,0.075-0.571c0.101-0.252,0.215-0.403,0.343-0.452c0.094-0.037,0.204-0.033,0.33,0.013
		c0.104,0.051,0.207,0.1,0.309,0.147L29.944,10.35z M29.404,10.24c-0.12,0.086-0.225,0.218-0.313,0.396
		c-0.099,0.195-0.123,0.356-0.073,0.484c0.034,0.085,0.118,0.158,0.254,0.221c0.154,0.072,0.244,0.125,0.271,0.156
		c-0.116,0.251-0.328,0.591-0.64,1.021c0.634-0.516,0.873-0.971,0.719-1.367c-0.018-0.01-0.097-0.047-0.237-0.111
		c-0.114-0.05-0.178-0.093-0.192-0.129c-0.034-0.087,0.03-0.275,0.194-0.563L29.404,10.24z"/>
	<path fill="#003889" d="M36.927,8.854c-0.138,0.445-0.426,0.755-0.865,0.927c-0.328,0.128-0.563,0.172-0.708,0.134
		c0.028-0.267,0.013-0.474-0.049-0.621l-0.072-0.171c0.018,0.134-0.042,0.293-0.18,0.479L34.98,9.415
		c0.024-0.083,0.041-0.262,0.052-0.539c0.002-0.064,0.029-0.105,0.078-0.125c0.087-0.035,0.497,0.181,1.226,0.644
		c0.225-0.222,0.398-0.462,0.521-0.723L36.927,8.854z M38.217,10.144c-0.187,0.328-0.481,0.571-0.885,0.728
		c-0.121,0.048-0.31,0.072-0.564,0.073c-0.216,0.001-0.363-0.021-0.439-0.063l-1.019-0.594c0.274,0.155,0.601,0.16,0.979,0.011
		c0.363-0.142,0.666-0.394,0.907-0.752L38.217,10.144z M37.799,12.053c0.023,0.284,0.034,0.429,0.032,0.432
		c0,0.134-0.035,0.273-0.104,0.419c-0.547-0.077-0.998-0.206-1.353-0.389c-0.04-0.256-0.044-0.562-0.012-0.918
		c0.306-0.003,0.529,0.017,0.669,0.064c0.033,0.011,0.15,0.064,0.35,0.157c0.201,0.092,0.309,0.143,0.322,0.151L37.799,12.053z
		 M36.977,11.855c-0.063-0.019-0.207-0.039-0.434-0.062l0.004,0.559l0.334,0.268l0.114-0.354L36.977,11.855z"/>
	<path fill="#003889" d="M37.388,6.494c0.044,0.112,0.063,0.227,0.054,0.346c-0.008,0.118-0.104,0.321-0.289,0.608
		c-0.185,0.287-0.33,0.461-0.435,0.523c-0.151-0.049-0.304-0.098-0.456-0.147c-0.199-0.079-0.32-0.173-0.362-0.283
		c-0.039-0.1-0.087-0.344-0.146-0.734c0.299-0.372,0.554-0.73,0.765-1.074l0.653,0.248c0.022,0.057,0.059,0.143,0.108,0.256
		C37.329,6.35,37.365,6.436,37.388,6.494z M36.587,6.308l-0.081-0.193c-0.103,0.183-0.289,0.427-0.558,0.731
		c0.003,0.09,0.042,0.299,0.114,0.626c0.129-0.187,0.26-0.372,0.391-0.556C36.603,6.658,36.647,6.455,36.587,6.308z M38.782,8.129
		c-0.138,0.446-0.426,0.755-0.865,0.927c-0.328,0.128-0.563,0.173-0.708,0.135c0.028-0.267,0.013-0.474-0.049-0.622l-0.071-0.171
		c0.017,0.134-0.043,0.293-0.18,0.479L36.836,8.69c0.023-0.083,0.041-0.263,0.051-0.539c0.003-0.064,0.029-0.106,0.078-0.125
		c0.088-0.034,0.497,0.181,1.227,0.645c0.225-0.222,0.398-0.462,0.52-0.724L38.782,8.129z M40.072,9.419
		c-0.187,0.327-0.481,0.571-0.884,0.728c-0.122,0.047-0.311,0.071-0.565,0.073c-0.216,0.001-0.363-0.021-0.439-0.064l-1.019-0.594
		c0.274,0.155,0.601,0.159,0.979,0.011c0.364-0.142,0.666-0.394,0.907-0.753L40.072,9.419z"/>
	<path fill="#003889" d="M40.227,1.089c0.045,0.116,0.08,0.273,0.104,0.469c0.034,0.276,0.057,0.434,0.064,0.473
		c0.108,0.492,0.245,1.231,0.409,2.215c0.005,0.048-0.01,0.108-0.043,0.185l-0.15,0.059L39.6,4.02
		c-0.125,0.334-0.335,0.641-0.633,0.918c0.059,0.033,0.229,0.164,0.511,0.393C39.743,5.556,39.9,5.695,39.95,5.75
		c0.116,0.129,0.221,0.312,0.313,0.548c0.165,0.422,0.22,0.946,0.165,1.577c-0.053,0.58-0.181,1.099-0.382,1.559L39.03,8.831
		c0.209-0.278,0.385-0.638,0.525-1.083c0.166-0.508,0.196-0.894,0.094-1.158c-0.294-0.751-0.854-1.357-1.681-1.818
		c0.002,0.416,0.049,0.743,0.143,0.982c0.06,0.152,0.106,0.268,0.142,0.349l0.105,0.069c-0.042-0.116-0.086-0.234-0.133-0.353
		c-0.032-0.11-0.046-0.235-0.042-0.376c0.233,0.077,0.461,0.205,0.685,0.382c0.247,0.194,0.41,0.393,0.489,0.596
		c0.196,0.504,0.001,1.079-0.588,1.729l-0.073-0.187c0.492-0.601,0.671-1.075,0.536-1.42l-0.178,0.148
		c-0.205-0.12-0.312-0.183-0.321-0.189c-0.125-0.063-0.243-0.094-0.351-0.094c-0.218-0.118-0.369-0.342-0.457-0.671
		c-0.092,0.033-0.161,0.012-0.207-0.061l-0.783-0.338l-0.135-0.025l-0.033-0.056l0.017-0.132c0.568-0.47,0.998-0.929,1.291-1.379
		c0.306-0.47,0.547-1.052,0.722-1.75c0.133-0.536,0.201-0.958,0.201-1.271c0.025-0.023,0.055-0.048,0.086-0.075
		c0.085-0.033,0.294,0.02,0.626,0.154C40.033,0.937,40.204,1.033,40.227,1.089z M39.147,0.809l-0.021-0.001
		c-0.009,0.639-0.147,1.312-0.413,2.018c-0.281,0.749-0.636,1.333-1.067,1.753c-0.103,0.096-0.256,0.238-0.462,0.427
		c0.595-0.473,1.003-0.889,1.226-1.25c0.163-0.263,0.387-0.803,0.672-1.621l0.164,0.015c0.024,0.225,0.151,0.665,0.384,1.318
		c0.014-0.097-0.035-0.391-0.146-0.882c-0.139-0.605-0.212-0.931-0.219-0.974C39.239,1.434,39.199,1.167,39.147,0.809z"/>
</g>
</svg>
