<?xml version="1.0" encoding="utf-8"?>
<!-- Generator: Adobe Illustrator 17.0.0, SVG Export Plug-In . SVG Version: 6.00 Build 0)  -->
<!DOCTYPE svg PUBLIC "-//W3C//DTD SVG 1.1//EN" "http://www.w3.org/Graphics/SVG/1.1/DTD/svg11.dtd">
<svg version="1.1" id="Capa_1" xmlns="http://www.w3.org/2000/svg" xmlns:xlink="http://www.w3.org/1999/xlink" x="0px" y="0px"
	 width="77px" height="28px" viewBox="0 0 77 28" enable-background="new 0 0 77 28" xml:space="preserve">
<g>
	<g>
		<path fill="#F5DEB3" d="M28.032,23.382c-1.732,0-3.155,1.046-3.155,2.309c0,1.292,1.423,2.309,3.155,2.309h16.872
			c-1.377-1.377-1.377-3.246,0-4.624H28.032V23.382z"/>
		<path fill="#F5DEB3" d="M27.369,0.091c-1.423,0.377-2.492,1.869-2.492,3.669v19.581c0.646-0.554,1.509-0.932,2.492-1.046
			C27.369,22.296,27.369,0.091,27.369,0.091z"/>
		<polygon fill="#F5DEB3" points="36.48,6.956 44.904,6.956 44.904,0 28.501,0 28.501,22.227 44.904,22.227 44.904,17.049 
			36.48,17.049 		"/>
		<g>
			<path fill="#F5DEB3" d="M44.544,10.785h-0.389v2.458h0.389c0.629,0,1.143-0.549,1.143-1.229
				C45.687,11.334,45.173,10.785,44.544,10.785z"/>
			<path fill="#F5DEB3" d="M37.611,8.11v7.802h14.512V8.11H37.611z M41.046,12.323h-0.36v1.229c0,0.171-0.154,0.309-0.349,0.309
				c-0.194,0-0.349-0.137-0.349-0.309v-3.075c0-0.171,0.154-0.309,0.349-0.309h0.709c0.674,0,1.223,0.48,1.223,1.075
				C42.264,11.837,41.715,12.323,41.046,12.323z M44.544,13.854h-0.737c-0.194,0-0.349-0.137-0.349-0.309v-3.075
				c0-0.171,0.154-0.309,0.349-0.309h0.737c1.012,0,1.84,0.829,1.84,1.846S45.561,13.854,44.544,13.854z M49.408,11.705
				c0.194,0,0.349,0.137,0.349,0.309c0,0.171-0.154,0.309-0.349,0.309h-1.029v1.229c0,0.171-0.154,0.309-0.349,0.309
				c-0.194,0-0.349-0.137-0.349-0.309v-3.075c0-0.171,0.154-0.309,0.349-0.309h1.377c0.194,0,0.349,0.137,0.349,0.309
				c0,0.171-0.154,0.309-0.349,0.309h-1.029v0.92L49.408,11.705L49.408,11.705z"/>
			<path fill="#F5DEB3" d="M41.046,10.785h-0.36v0.92h0.36c0.291,0,0.526-0.206,0.526-0.463
				C41.566,10.991,41.332,10.785,41.046,10.785z"/>
		</g>
	</g>
</g>
</svg>
