<?xml version="1.0" encoding="utf-8"?>
<!-- Generator: Adobe Illustrator 17.0.0, SVG Export Plug-In . SVG Version: 6.00 Build 0)  -->
<!DOCTYPE svg PUBLIC "-//W3C//DTD SVG 1.1//EN" "http://www.w3.org/Graphics/SVG/1.1/DTD/svg11.dtd">
<svg version="1.1" id="Capa_1" xmlns="http://www.w3.org/2000/svg" xmlns:xlink="http://www.w3.org/1999/xlink" x="0px" y="0px"
	 width="512px" height="512px" viewBox="0 0 512 512" enable-background="new 0 0 512 512" xml:space="preserve">
<g>
	<circle fill="#F5DEB3" cx="256" cy="85" r="85"/>
	<path fill="#F5DEB3" d="M318.459,181.515C300.462,193.202,279.011,200,256,200s-44.462-6.798-62.459-18.485
		c-19.895,7.603-38.341,18.82-54.38,33.216L256,258.546l116.839-43.815C356.8,200.335,338.354,189.117,318.459,181.515
		L318.459,181.515z"/>
	<path fill="#F5DEB3" d="M436,310h-10c-8.284,0-15,6.716-15,15v40c0,8.284,6.716,15,15,15h10c19.33,0,35-15.67,35-35
		S455.33,310,436,310z"/>
	<path fill="#F5DEB3" d="M87.456,234.276C83.412,237.079,81,241.685,81,246.605V280h5c24.813,0,45,20.187,45,45v40
		c0,24.813-20.187,45-45,45h-5v31.605c0,6.253,3.879,11.85,9.733,14.045L241,512V284.96l-139.733-52.4
		C96.66,230.831,91.499,231.472,87.456,234.276L87.456,234.276z"/>
	<path fill="#F5DEB3" d="M381,365v-40c0-24.813,20.187-45,45-45h5v-33.395c0-4.92-2.412-9.526-6.456-12.329
		c-4.044-2.804-9.206-3.445-13.811-1.716L271,284.96V512l150.267-56.35c5.854-2.195,9.733-7.792,9.733-14.045V410h-5
		C401.187,410,381,389.813,381,365L381,365z"/>
	<path fill="#F5DEB3" d="M101,365v-40c0-8.284-6.716-15-15-15H76c-19.33,0-35,15.67-35,35s15.67,35,35,35h10
		C94.284,380,101,373.284,101,365z"/>
</g>
</svg>
